<svg width="1033" height="968" viewBox="0 0 1033 968" fill="none" xmlns="http://www.w3.org/2000/svg">
<ellipse cx="541.961" cy="935.264" rx="491.039" ry="32.7359" fill="#D7D7D7"/>
<path d="M286.434 299.392L286.346 299.269L286.505 299.146L287.454 298.512L287.26 298.653C287.941 298.259 288.744 298.134 289.512 298.303C290.28 298.473 290.956 298.924 291.408 299.568L291.795 300.114L313.151 330.887L316.877 336.362C328.143 332.964 346.44 347.26 355.703 355.463C356.283 355.974 356.828 356.449 357.32 356.907C358.058 355.252 358.498 354.196 358.498 354.196C358.955 359.231 376.707 366.783 380.855 369.53C382.739 370.67 384.852 371.38 387.042 371.607C386.445 352.471 401.226 332.331 401.226 332.331L437.346 286.294C438.675 277.968 437.385 269.435 433.655 261.876C433.356 261.278 433.057 260.679 432.723 260.116H432.548C433.914 263.984 434.679 268.039 434.815 272.14C434.727 275.256 431.845 290.361 427.784 289.745C427.382 289.786 426.976 289.716 426.61 289.542C426.244 289.368 425.933 289.097 425.71 288.759C422.476 284.991 422.195 278.583 422.353 272.65C422.409 274.394 422.603 276.131 422.933 277.844C422.67 272.914 423.232 267.703 423.232 263.989C423.232 262.51 423.232 261.049 423.127 259.57H422.687C422.687 260.133 422.687 260.732 422.687 261.33C422.687 260.714 422.687 260.116 422.687 259.57H422.23C414.129 258.085 406.537 254.559 400.172 249.324C398.6 249.26 397.057 248.884 395.632 248.216C394.208 247.548 392.931 246.602 391.876 245.433C391.49 246.72 391.432 248.084 391.705 249.399C391.978 250.715 392.574 251.942 393.44 252.968C388.606 252.739 384.511 248.972 382.648 244.553C381.052 240.041 380.581 235.206 381.277 230.469C381.972 225.73 382.319 220.946 382.314 216.156C381.981 213.571 381.84 210.964 381.892 208.358C381.97 207.561 382.111 206.772 382.314 205.999H382.173C381.71 206.008 381.25 205.926 380.818 205.757C380.387 205.588 379.993 205.335 379.66 205.013C377.656 203.463 377.006 200.435 376.496 198.112C375.109 192.763 374.482 187.245 374.633 181.721C374.739 183.394 374.949 185.084 375.196 186.756C374.756 180.419 375.635 174.257 379.818 169.662C382.701 166.511 386.726 164.662 390.593 162.814C391.975 162.319 393.193 161.447 394.108 160.296C394.791 158.941 395.164 157.449 395.198 155.93C396.551 146.67 405.251 140.227 413.917 136.565C425.06 131.706 438.524 129.629 449.157 135.403C454.43 138.202 458.473 142.586 463.219 146.16C469.16 150.684 476.014 153.853 482.36 157.797C488.705 161.74 494.663 166.74 497.774 173.535C502.432 184.098 498.934 196.069 498.354 207.53C497.423 225.575 504.84 244.5 519.534 255.063C521.295 256.144 522.868 257.506 524.192 259.095C524.837 259.899 525.221 260.882 525.29 261.912C525.359 262.942 525.111 263.968 524.578 264.851C523.822 265.837 522.627 266.401 521.801 267.334C520.131 269.235 520.465 272.14 521.116 274.569C523.25 282.518 527.503 289.736 533.419 295.449C533.156 297.315 530.853 298.054 528.972 298.336C523.997 299.069 518.974 299.434 513.944 299.427H511.783C512.011 300.008 512.257 300.624 512.503 301.276C515.228 308.459 518.76 319.514 517.583 326.275C515.825 336.943 510.201 385.726 512.978 394.282C515.755 402.838 508.513 464.877 508.513 464.877C508.513 464.877 507.547 469.666 505.877 476.814C510.218 487.06 515.175 498.432 517.653 502.992C522.645 512.129 520.184 558.782 502.977 579.52C502.977 579.52 495.946 589.59 497.704 593.234C499.461 596.878 497.387 603.304 497.387 603.304L494.663 663.671C494.721 669.841 495.144 676.001 495.929 682.121C503.276 691.223 514.595 704.497 519.92 706.662C528.164 710.025 589.646 784.722 589.646 784.722C589.646 784.722 589.154 785.62 588.188 787.081L589.945 789.088L601.739 802.784L602.671 803.858C604.885 803.436 619.632 800.76 631.32 799.915H632.48V799.703C636.577 799.233 640.719 799.346 644.784 800.038C645.553 800.18 646.262 800.548 646.823 801.094C650.813 805.988 652.957 882.816 652.957 882.816C652.957 882.816 648.704 921.282 635.381 923.43C634.701 923.666 633.99 923.797 633.271 923.817H632.691C623.2 923.113 618.841 917.673 616.872 913.941C616.29 912.826 615.847 911.644 615.554 910.42C615.554 910.42 617.101 903.572 612.953 894.118C608.805 884.664 601.054 868.028 601.054 868.028C601.054 868.028 586.992 853.222 589.506 846.039C589.119 845.458 588.662 844.825 588.17 844.103C582.897 836.568 572.211 821.692 563.563 811.763C563 811.094 562.438 810.478 561.805 809.862C558.659 811.191 555.367 812.143 551.998 812.696C551.998 812.696 538.78 807.52 533.876 795.936C531.785 791.007 523.576 782.275 514.841 773.877L515.122 776.113L515.421 849.596C512.58 851.55 509.554 853.218 506.387 854.578V856.338C506.325 866.808 506.959 877.271 508.285 887.657L508.548 889.294C509.638 888.52 510.587 888.256 511.185 888.854C513.892 891.601 515.579 909.135 515.737 917.216C515.737 917.48 515.737 917.744 515.737 918.026C516.177 926.089 520.764 937.813 506.949 938.412C496.614 938.852 452.058 939.521 428.224 939.873C415.383 940.116 402.891 935.681 393.071 927.391C385.495 920.895 380.908 913.167 391.225 907.48C391.858 907.128 392.526 906.794 393.264 906.459L416.114 902.938L455.151 882.974C455.151 882.974 455.38 870.897 460.072 872.904C461.467 873.209 462.802 873.738 464.027 874.471C464.256 874.031 464.502 873.556 464.73 873.063C467.91 866.752 469.56 859.78 469.546 852.712C469.546 852.078 469.546 851.426 469.458 850.775C468.315 849.732 467.235 848.62 466.224 847.448C466.224 847.448 466.523 820.002 463.447 814.826C460.371 809.65 450.845 757.188 450.845 757.188C450.845 757.188 450.546 747.435 444.394 741.643C438.242 735.851 440.404 719.073 440.404 719.073C440.404 719.073 431.792 714.496 429.032 699.567C426.273 684.638 417.344 652.034 417.344 652.034C417.344 652.034 398.906 603.85 400.119 573.376C401.332 542.902 398.361 527.022 398.361 527.022L394.53 456.181V455.089C393.001 456.251 391.964 457.202 391.964 457.202C391.964 457.202 391.964 456.92 391.964 456.427C391.401 456.902 391.085 457.202 391.085 457.202C391.085 457.202 389.116 425.055 389.784 412.309C379.027 408.648 362.646 402.627 361.662 399.564C360.291 395.004 341.835 380.586 341.835 380.586C342.235 380.521 342.617 380.377 342.96 380.163C342.38 379.899 341.783 379.582 341.203 379.248C329.11 372.769 306.647 353.826 310.426 342.277L285.819 306.909C285.048 305.775 284.689 304.41 284.801 303.042C284.913 301.674 285.489 300.386 286.434 299.392V299.392Z" fill="url(#paint0_linear)"/>
<path d="M343.67 384.812C345.466 385.94 347.467 386.7 349.558 387.048C357.239 387.277 363.619 366.45 363.619 366.45C363.619 366.45 361.44 364.232 357.96 361.169C347.66 351.997 326.058 335.061 315.934 344.532C304.509 355.113 330.364 377.647 343.67 384.812Z" fill="#DAA97A"/>
<path d="M460.438 881.5L488.789 912.15C488.789 912.15 515.013 912.449 509.881 897.961C508.856 894.82 508.126 891.59 507.702 888.313C506.41 878.025 505.793 867.663 505.856 857.293C505.856 850.498 505.961 845.727 505.961 845.727C505.961 845.727 464.674 827.612 468.893 846.484C469.417 848.843 469.7 851.25 469.736 853.667C469.753 860.662 468.14 867.564 465.026 873.824C463.751 876.527 462.215 879.098 460.438 881.5V881.5Z" fill="#DAA97A"/>
<path opacity="0.1" d="M460.438 881.497L488.789 912.147C488.789 912.147 515.013 912.446 509.881 897.958C508.856 894.817 508.126 891.587 507.702 888.31C503.958 891.215 498.579 899.771 498.579 899.771C498.579 899.771 480.493 905.052 475.519 889.208C472.742 880.406 468.348 875.951 464.973 873.821C463.715 876.522 462.197 879.093 460.438 881.497V881.497Z" fill="black"/>
<path d="M394.663 927.651C404.275 935.854 416.558 940.238 429.183 939.974C452.56 939.64 496.237 938.953 506.379 938.531C519.948 937.932 515.448 926.331 515.009 918.338C515.009 918.056 515.009 917.81 515.009 917.546C514.851 909.536 513.251 892.177 510.545 889.466C507.838 886.755 498.575 901.543 498.575 901.543C498.575 901.543 480.489 906.825 475.515 890.98C470.54 875.136 460.434 873.604 460.434 873.604C455.847 871.615 455.618 883.569 455.618 883.569L417.336 903.339L394.874 906.86C394.153 907.194 393.503 907.529 392.888 907.863C382.728 913.567 387.228 921.208 394.663 927.651Z" fill="#C17174"/>
<path opacity="0.25" d="M465.402 897.179C464.49 897.179 463.75 896.438 463.75 895.524C463.75 894.61 464.49 893.869 465.402 893.869C466.315 893.869 467.055 894.61 467.055 895.524C467.055 896.438 466.315 897.179 465.402 897.179Z" fill="white"/>
<path opacity="0.25" d="M449.858 904.894C448.945 904.894 448.205 904.153 448.205 903.239C448.205 902.325 448.945 901.584 449.858 901.584C450.77 901.584 451.51 902.325 451.51 903.239C451.51 904.153 450.77 904.894 449.858 904.894Z" fill="white"/>
<path opacity="0.25" d="M441.873 908.46C440.961 908.46 440.221 907.719 440.221 906.805C440.221 905.891 440.961 905.15 441.873 905.15C442.786 905.15 443.525 905.891 443.525 906.805C443.525 907.719 442.786 908.46 441.873 908.46Z" fill="white"/>
<path opacity="0.25" d="M433.748 912.126C432.836 912.126 432.096 911.385 432.096 910.471C432.096 909.557 432.836 908.816 433.748 908.816C434.661 908.816 435.4 909.557 435.4 910.471C435.4 911.385 434.661 912.126 433.748 912.126Z" fill="white"/>
<path d="M394.663 927.656C404.275 935.858 416.558 940.243 429.183 939.979C452.56 939.645 496.237 938.958 506.379 938.536C519.948 937.937 515.448 926.336 515.009 918.343L429.816 923.624C429.816 923.624 394.926 918.343 392.905 907.921C382.728 913.572 387.228 921.213 394.663 927.656Z" fill="#C17174"/>
<path opacity="0.25" d="M394.663 927.656C404.275 935.858 416.558 940.243 429.183 939.979C452.56 939.645 496.237 938.958 506.379 938.536C519.948 937.937 515.448 926.336 515.009 918.343L429.816 923.624C429.816 923.624 394.926 918.343 392.905 907.921C382.728 913.572 387.228 921.213 394.663 927.656Z" fill="white"/>
<path d="M553.275 804.513C556.41 807.075 559.273 809.954 561.818 813.104C570.272 822.927 580.73 837.751 585.915 845.11C587.919 847.997 589.132 849.81 589.132 849.81L600.451 848.138C600.451 848.138 612.649 829.424 612.491 828.984C612.332 828.543 602.824 808.439 602.824 808.439L599.15 804.126L587.567 790.57L582.294 784.443C582.294 784.443 543.063 797.119 553.275 804.513Z" fill="#DAA97A"/>
<path opacity="0.1" d="M585.915 845.142C587.919 848.029 589.132 849.843 589.132 849.843L600.451 848.17C600.451 848.17 612.649 829.456 612.491 829.016C612.332 828.576 602.824 808.436 602.824 808.436L599.15 804.123L597.955 804.352H595.072C605.179 814.915 594.334 838.153 594.334 838.153C594.334 838.153 589.659 838.593 585.915 845.142Z" fill="black"/>
<path d="M598.54 868.8C598.54 868.8 606.08 885.102 610.158 894.468C614.236 903.834 612.724 910.612 612.724 910.612C613.011 911.832 613.442 913.014 614.007 914.133C615.452 917.012 617.652 919.443 620.37 921.167C623.088 922.891 626.223 923.843 629.439 923.921H630.177C643.922 923.569 648.281 883.606 648.281 883.606C648.281 883.606 646.172 807.535 642.253 802.624C641.714 802.077 641.02 801.708 640.266 801.567C636.267 800.873 632.188 800.76 628.156 801.233C615.73 802.131 599.753 805.194 599.753 805.194H596.888C606.994 815.757 596.149 839.013 596.149 839.013C596.149 839.013 591.316 839.453 587.554 846.248C583.793 853.044 598.54 868.8 598.54 868.8Z" fill="#C17174"/>
<path opacity="0.25" d="M615.129 847.812C614.217 847.812 613.477 847.071 613.477 846.157C613.477 845.243 614.217 844.502 615.129 844.502C616.042 844.502 616.781 845.243 616.781 846.157C616.781 847.071 616.042 847.812 615.129 847.812Z" fill="white"/>
<path opacity="0.25" d="M615.969 861.005C615.056 861.005 614.317 860.264 614.317 859.35C614.317 858.436 615.056 857.695 615.969 857.695C616.881 857.695 617.621 858.436 617.621 859.35C617.621 860.264 616.881 861.005 615.969 861.005Z" fill="white"/>
<path d="M615.116 913.8C616.562 916.679 618.761 919.11 621.479 920.834C624.197 922.558 627.332 923.51 630.549 923.588H631.269C645.014 923.236 649.391 883.273 649.391 883.273C649.391 883.273 647.281 807.202 643.362 802.291C642.823 801.744 642.13 801.375 641.376 801.234C637.376 800.54 633.297 800.427 629.266 800.9C629.494 814.579 630.144 857.799 629.266 862.094C628.387 866.39 620.6 902.339 615.116 913.8Z" fill="#C17174"/>
<path opacity="0.25" d="M615.116 913.8C616.562 916.679 618.761 919.11 621.479 920.834C624.197 922.558 627.332 923.51 630.549 923.588H631.269C645.014 923.236 649.391 883.273 649.391 883.273C649.391 883.273 647.281 807.202 643.362 802.291C642.823 801.744 642.13 801.375 641.376 801.234C637.376 800.54 633.297 800.427 629.266 800.9C629.494 814.579 630.144 857.799 629.266 862.094C628.387 866.39 620.6 902.339 615.116 913.8Z" fill="white"/>
<path d="M631.283 923.627C645.028 923.275 649.404 883.312 649.404 883.312C649.404 883.312 647.295 807.241 643.376 802.33C642.837 801.783 642.144 801.414 641.389 801.273C638.507 805.569 635.976 815.076 638.261 835.99C642.549 875.619 637.382 878.118 637.382 878.118C637.382 878.118 630.931 911.797 631.283 923.627Z" fill="#C17174"/>
<path opacity="0.1" d="M631.283 923.627C645.028 923.275 649.404 883.312 649.404 883.312C649.404 883.312 647.295 807.241 643.376 802.33C642.837 801.783 642.144 801.414 641.389 801.273C638.507 805.569 635.976 815.076 638.261 835.99C642.549 875.619 637.382 878.118 637.382 878.118C637.382 878.118 630.931 911.797 631.283 923.627Z" fill="black"/>
<path opacity="0.1" d="M343.67 384.815C345.466 385.943 347.467 386.703 349.558 387.051C357.239 387.28 363.619 366.453 363.619 366.453C363.619 366.453 361.44 364.235 357.96 361.172C355.446 366.805 348.521 381.998 343.67 384.815Z" fill="black"/>
<path d="M392.962 377.316C392.962 377.316 386.634 377.773 382.574 375.062C378.514 372.351 361.095 364.869 360.638 359.887C360.638 359.887 350.251 385.238 344.363 386.153C344.363 386.153 362.449 400.413 363.802 404.938C365.156 409.462 400.432 420.571 400.432 420.571L392.962 377.316Z" fill="#FF748E"/>
<path opacity="0.1" d="M392.962 377.316C392.962 377.316 386.634 377.773 382.574 375.062C378.514 372.351 361.095 364.869 360.638 359.887C360.638 359.887 350.251 385.238 344.363 386.153C344.363 386.153 362.449 400.413 363.802 404.938C365.156 409.462 400.432 420.571 400.432 420.571L392.962 377.316Z" fill="black"/>
<path opacity="0.1" d="M553.261 804.513C556.396 807.075 559.258 809.954 561.803 813.104C575.443 807.382 584.231 795.693 587.57 790.57L582.297 784.443C582.297 784.443 543.049 797.119 553.261 804.513Z" fill="black"/>
<path d="M488.763 676.134C488.763 676.134 510.874 705.728 518.959 709.055C527.045 712.382 587.314 786.34 587.314 786.34C587.314 786.34 574.361 810.195 550.544 814.103C550.544 814.103 537.591 808.98 532.757 797.501C527.923 786.023 489.958 753.595 489.958 753.595L488.763 676.134Z" fill="#66A1CC"/>
<path opacity="0.1" d="M488.763 676.134C488.763 676.134 510.874 705.728 518.959 709.055C527.045 712.382 587.314 786.34 587.314 786.34C587.314 786.34 574.361 810.195 550.544 814.103C550.544 814.103 537.591 808.98 532.757 797.501C527.923 786.023 489.958 753.595 489.958 753.595L488.763 676.134Z" fill="#66A1CC"/>
<path opacity="0.1" d="M468.861 846.479C469.386 848.838 469.668 851.245 469.705 853.662C481.92 864.771 496.632 861.338 505.824 857.289C505.824 850.493 505.93 845.722 505.93 845.722C505.93 845.722 464.642 827.536 468.861 846.479Z" fill="black"/>
<path d="M395.62 452.642L396.059 460.987L399.821 531.142C399.821 531.142 402.844 546.846 401.578 577.02C400.313 607.195 418.522 655.01 418.522 655.01C418.522 655.01 427.31 687.314 429.982 702.102C432.654 716.89 441.125 721.468 441.125 721.468C441.125 721.468 439.016 738.069 445.045 743.808C451.074 749.547 451.373 759.195 451.373 759.195C451.373 759.195 460.723 811.129 463.676 816.27C466.629 821.41 466.4 848.575 466.4 848.575C485.981 871.813 514.613 850.687 514.613 850.687L514.314 777.926C514.314 777.926 506.176 710.905 500.147 701.539C494.119 692.173 494.119 666.523 494.119 666.523L496.808 606.667C496.808 606.667 498.952 600.329 497.107 596.702C495.261 593.076 502.256 583.129 502.256 583.129C519.148 562.584 521.591 516.389 516.652 507.428C511.713 498.467 497.107 462.149 497.107 462.149L476.946 450.371L440.51 451.445L395.62 452.642Z" fill="#66A1CC"/>
<path d="M400.445 344.705V364.634L413.575 358.965L426.67 353.314L455.179 325.234C455.179 325.234 477.729 310.569 489.787 297.207C496.677 289.585 500.139 282.384 494.075 278.581C491.137 276.654 488.48 274.325 486.184 271.663C480.124 264.508 474.855 256.716 470.47 248.424C470.277 248.09 470.083 247.755 469.908 247.421C464.037 236.629 460.153 227.422 460.153 227.422C460.153 227.422 443.631 232.703 433.015 240.238C432.153 240.837 431.345 241.453 430.571 242.087C424.648 246.946 421.695 252.65 427.162 258.213C428.566 259.667 429.864 261.22 431.046 262.86V262.86C431.929 264.079 432.739 265.349 433.472 266.663C433.788 267.262 434.104 267.843 434.386 268.424C438.043 275.917 439.307 284.357 438.006 292.595L400.445 344.705Z" fill="#DAA97A"/>
<path d="M402.84 202.57C402.154 203.767 401.205 204.788 400.572 206.003C399.506 208.683 399.161 211.597 399.57 214.453C399.913 218.967 399.617 223.507 398.691 227.938C397.76 231.917 396.02 235.755 395.879 239.839C395.686 245.596 398.674 250.93 401.556 255.912C399.99 255.865 398.45 255.498 397.03 254.836C395.61 254.173 394.339 253.227 393.295 252.057C392.914 253.327 392.852 254.671 393.116 255.971C393.38 257.27 393.961 258.484 394.807 259.504C390.079 259.275 386.019 255.543 384.261 251.177C382.657 246.666 382.192 241.827 382.908 237.093C383.596 232.401 383.937 227.664 383.927 222.921C383.6 220.359 383.465 217.775 383.523 215.193C383.962 210.07 387.038 205.615 390.132 201.461L396.248 193.046C396.673 192.358 397.282 191.803 398.006 191.444C403.789 188.979 404.457 199.647 402.84 202.57Z" fill="#2F2E41"/>
<path d="M384.186 219.19C384.184 230.306 388.07 241.07 395.17 249.613C402.27 258.155 412.134 263.936 423.048 265.949C425.89 266.466 428.772 266.725 431.661 266.723H431.872C432.381 266.723 432.909 266.723 433.418 266.723C442.722 266.378 451.718 263.299 459.288 257.871C466.857 252.443 472.666 244.904 475.989 236.194C479.313 227.483 480.006 217.986 477.981 208.885C475.956 199.783 471.304 191.479 464.602 185.007C457.9 178.534 449.446 174.179 440.291 172.483C431.137 170.787 421.687 171.825 413.117 175.469C404.547 179.113 397.237 185.2 392.096 192.975C386.955 200.749 384.21 209.866 384.204 219.19H384.186Z" fill="#DAA97A"/>
<path opacity="0.1" d="M425.439 336.713C425.439 336.713 401.535 350.216 407.652 338.826L438.85 292.631L403.433 338.21C403.433 338.21 380.83 369.317 393.186 390.743C393.186 390.743 394.944 408.559 392.887 412.784C390.831 417.009 393.485 462.077 393.485 462.077C393.485 462.077 401.939 454.226 406.457 455.722C410.974 457.218 442.857 459.894 442.857 459.894L425.439 336.713Z" fill="black"/>
<path opacity="0.1" d="M395.618 452.64L396.057 460.984C398.922 458.907 402.912 456.583 405.566 457.463C410.083 458.977 442.02 461.706 442.02 461.706L440.561 451.302L395.618 452.64Z" fill="black"/>
<path d="M424.548 336.713C424.548 336.713 400.627 350.216 406.761 338.826L437.959 292.631L402.543 338.21C402.543 338.21 379.939 369.317 392.296 390.743C392.296 390.743 394.053 408.559 391.997 412.784C389.94 417.009 392.594 462.077 392.594 462.077C392.594 462.077 401.031 454.226 405.548 455.722C410.065 457.218 442.02 459.965 442.02 459.965L424.548 336.713Z" fill="#CCCCCC"/>
<path opacity="0.1" d="M411.769 359.857C413.158 374.381 419.116 391.651 419.116 391.651C419.116 391.651 423.335 434.519 428.801 447.265C434.267 460.01 431.824 477.457 434.83 509.762C435.919 521.398 439.663 529.391 444.708 534.778C453.004 543.581 464.85 545.499 474.201 544.954L476.416 544.778C491.496 543.281 505.962 470.521 505.962 470.521C505.962 470.521 512.887 408.622 510.18 400.101C507.473 391.581 512.852 343.396 514.662 332.833C515.822 326.126 512.36 315.228 509.688 308.081C508.124 303.961 506.841 301.039 506.841 301.039C506.841 301.039 501.708 284.737 493.272 276.287C492.108 275.09 490.717 274.14 489.18 273.493C487.643 272.846 485.992 272.515 484.325 272.519C480.359 272.68 476.507 273.896 473.164 276.04C473.029 276.118 472.899 276.207 472.777 276.304C472.777 276.304 417.904 332.464 412.789 345.438C411.365 349.082 411.224 354.258 411.769 359.857Z" fill="black"/>
<path d="M413.558 358.962C414.964 373.469 420.923 390.739 420.923 390.739C420.923 390.739 425.141 433.625 430.572 446.3C436.004 458.975 433.578 476.492 436.601 508.797C437.691 520.416 441.435 528.409 446.479 533.813C454.775 542.616 466.622 544.517 475.973 543.989L478.187 543.813C493.268 542.299 507.733 469.538 507.733 469.538C507.733 469.538 514.658 407.657 511.952 399.207C509.245 390.757 514.658 342.449 516.469 331.869C517.629 325.179 514.166 314.264 511.495 307.116C509.93 302.997 508.647 300.162 508.647 300.162C508.647 300.162 503.515 283.86 495.078 275.41C493.918 274.21 492.527 273.26 490.989 272.615C489.452 271.97 487.799 271.645 486.132 271.66C482.162 271.803 478.306 273.02 474.971 275.181L474.584 275.428C474.584 275.428 419.71 331.587 414.595 344.562C413.172 348.171 412.978 353.364 413.558 358.962Z" fill="#FF748E"/>
<path opacity="0.1" d="M475.036 579.979C475.036 579.979 487.48 591.071 491.769 590.542C496.057 590.014 475.036 579.979 475.036 579.979Z" fill="black"/>
<path opacity="0.1" d="M465.535 571.141C465.535 571.141 478.015 625.258 452.986 628.603C427.957 631.948 435.691 566.986 435.691 566.986L465.535 571.141Z" fill="black"/>
<path d="M466.445 570.245C466.445 570.245 478.854 624.363 453.878 627.743C428.901 631.123 436.6 566.126 436.6 566.126L466.445 570.245Z" fill="#DAA97A"/>
<path opacity="0.1" d="M384.498 213.935C385.194 212.9 385.783 211.797 386.256 210.643C389.578 203.706 398.12 207.122 404.377 210.414L407.717 214.727C409.24 216.517 410.523 218.5 411.531 220.625C412.172 222.351 412.706 224.114 413.13 225.906C413.991 228.969 415.257 231.892 416.399 234.885C420.189 244.835 422.435 255.308 423.061 265.94C425.903 266.457 428.785 266.716 431.673 266.714H431.884V266.503C431.568 265.306 431.304 264.091 431.058 262.876C429.75 256.026 429.589 249.006 430.584 242.103C430.584 241.944 430.584 241.803 430.584 241.645C430.812 240.113 431.111 238.564 431.234 237.032C431.814 238.089 432.376 239.163 432.992 240.254C436.771 247.296 440.743 254.338 447.879 257.419C450.775 258.557 453.827 259.246 456.931 259.461C460.762 259.666 464.559 260.298 468.25 261.345C469.509 261.689 470.647 262.378 471.537 263.334C472.53 264.806 473.102 266.524 473.189 268.299C473.57 270.641 474.158 272.944 474.947 275.182C478.174 283.536 483.217 291.065 489.711 297.223L491.346 298.808C494.129 301.685 497.45 303.988 501.118 305.586C504.451 306.708 507.956 307.233 511.471 307.135C509.906 303.015 508.623 300.181 508.623 300.181C508.623 300.181 503.491 283.879 495.054 275.429C493.894 274.229 492.503 273.278 490.965 272.634C489.428 271.989 487.775 271.664 486.108 271.679C479.81 264.221 474.352 256.092 469.832 247.437C474.152 241.566 477.064 234.779 478.345 227.6C479.626 220.421 479.241 213.043 477.219 206.037C475.197 199.031 471.593 192.585 466.685 187.198C461.778 181.811 455.698 177.627 448.918 174.971C442.137 172.314 434.837 171.255 427.583 171.877C420.328 172.499 413.314 174.784 407.083 178.556C400.851 182.329 395.57 187.486 391.648 193.63C387.725 199.774 385.267 206.74 384.463 213.988L384.498 213.935Z" fill="black"/>
<path d="M415.791 241.489C430.941 242.25 436.755 217.867 451.822 217.867C466.89 217.867 450.953 251.321 432.824 267.736" stroke="white" stroke-opacity="0.5"/>
<path d="M417.104 238.213C409.578 242.443 401.937 245.278 390.244 241.494C395.836 261.733 406.636 266.643 434.137 268.397C419.276 259.957 416.636 250.892 417.104 238.213Z" fill="#A7E6F4"/>
<path d="M381.465 176.847C384.277 173.713 388.232 171.883 392.011 170.069C393.356 169.558 394.54 168.695 395.438 167.569C396.094 166.224 396.454 164.753 396.493 163.256C397.811 154.066 406.353 147.711 414.843 143.979C425.775 139.173 438.905 137.113 449.398 142.817C454.495 145.599 458.52 149.947 463.126 153.485C468.961 157.957 475.675 161.091 481.897 164.999C488.119 168.907 494.06 173.801 497.013 180.597C501.583 190.984 498.155 202.902 497.575 214.24C496.679 232.126 503.938 250.805 518.351 261.385C520.087 262.451 521.632 263.802 522.921 265.382C523.551 266.18 523.924 267.152 523.989 268.167C524.055 269.183 523.811 270.195 523.29 271.068C522.569 272.054 521.374 272.617 520.583 273.533C518.931 275.416 519.265 278.286 519.915 280.716C521.997 288.564 526.164 295.7 531.973 301.366C531.727 303.232 529.477 303.954 527.631 304.236C522.749 304.963 517.82 305.322 512.885 305.309C509.038 305.625 505.171 305.037 501.592 303.591C498.012 302.146 494.819 299.882 492.267 296.982C483.479 288.708 476.044 278.374 474.058 266.473C473.955 264.701 473.385 262.988 472.406 261.509C471.503 260.569 470.37 259.883 469.119 259.519C462.563 257.266 455.058 258.375 448.748 255.593C440.522 252.072 436.444 243.27 432.138 235.207C431.998 236.739 431.716 238.288 431.47 239.837C430.215 248.122 430.634 256.575 432.701 264.695C433.878 269.29 435.583 273.867 435.46 278.603C435.372 282.124 431.804 300.521 427.111 295.011C422.418 289.5 424.141 277.318 424.141 270.487C424.136 257.699 421.794 245.021 417.233 233.077C416.108 230.102 414.825 227.162 413.964 224.098C413.538 222.309 413.01 220.546 412.382 218.817C411.362 216.695 410.074 214.713 408.55 212.919L405.193 208.606C398.936 205.279 390.394 201.899 387.072 208.835C385.806 211.493 385.121 214.433 381.799 211.845C379.848 210.314 379.215 207.303 378.706 205.015C376.614 195.42 374.891 184.136 381.465 176.847Z" fill="#2F2E41"/>
<path opacity="0.1" d="M445.093 343.056C446.376 310.54 491.811 303.815 502.41 334.571C502.496 334.776 502.566 334.988 502.621 335.204C509.563 356.031 506.54 408.775 506.54 408.775C506.54 408.775 505.644 444.196 502.322 455.973C499 467.751 489.667 501.552 489.667 507.027C489.667 512.502 481.002 533.294 477.363 534.808C473.725 536.322 471.879 548.082 470.983 550.194C470.087 552.307 467.468 579.788 467.468 579.788C467.468 579.788 433.404 577.675 432.807 572.236C432.209 566.796 440.347 540.23 440.347 540.23C440.347 540.23 446.341 529.368 447.114 520.618C447.887 511.869 452.598 507.89 451.666 501.852C450.735 495.813 454.391 492.803 454.391 488.877C454.391 484.951 457.098 474.388 457.098 474.388C457.098 474.388 462.827 469.846 461.913 464.424C461 459.001 470.051 448.122 467.643 444.196C465.235 440.27 464.638 430.605 464.638 430.605C464.638 430.605 461.615 387.139 459.506 375.361C457.396 363.583 445.04 344.57 445.04 344.57C445.04 344.57 445.058 344.024 445.093 343.056Z" fill="black"/>
<path opacity="0.1" d="M446.489 533.814C454.786 542.616 466.632 544.518 475.983 543.99C477.073 539.87 478.654 534.8 480.957 533.849C484.613 532.335 493.261 511.509 493.261 506.086C493.261 500.664 502.594 466.828 505.916 455.032C509.238 443.237 510.134 407.851 510.134 407.851C510.134 407.851 513.157 355.037 506.214 334.263C506.214 334.07 506.091 333.858 506.004 333.647C495.458 302.874 449.97 309.617 448.687 342.133C448.687 343.101 448.687 343.629 448.687 343.629C448.687 343.629 460.99 362.642 463.152 374.42C465.314 386.198 468.249 429.664 468.249 429.664C468.249 429.664 468.864 439.329 471.272 443.255C473.68 447.181 464.646 458.06 465.542 463.483C466.439 468.905 460.726 473.447 460.726 473.447C460.726 473.447 458.02 484.01 458.02 487.953C458.02 491.897 454.399 494.89 455.295 500.928C456.192 506.967 451.376 510.892 450.602 519.642C449.957 524.548 448.57 529.326 446.489 533.814V533.814Z" fill="black"/>
<path d="M446.896 342.161C448.179 309.645 493.614 302.92 504.212 333.676L504.423 334.292C511.366 355.136 508.343 407.88 508.343 407.88C508.343 407.88 507.447 443.283 504.125 455.061C500.803 466.838 491.47 500.657 491.47 506.115C491.47 511.572 482.804 532.381 479.166 533.895C475.528 535.409 473.682 547.187 472.786 549.299C471.889 551.412 469.27 578.875 469.27 578.875C469.27 578.875 435.207 576.763 434.61 571.341C434.012 565.918 442.132 539.335 442.132 539.335C442.132 539.335 448.143 528.455 448.917 519.706C449.69 510.956 454.506 507.03 453.592 500.992C452.678 494.953 456.317 491.925 456.317 487.999C456.317 484.074 459.023 473.511 459.023 473.511C459.023 473.511 464.753 468.986 463.839 463.546C462.925 458.106 471.977 447.244 469.569 443.318C467.161 439.392 466.564 429.745 466.564 429.745C466.564 429.745 463.54 386.261 461.431 374.483C459.322 362.706 446.966 343.693 446.966 343.693C446.966 343.693 446.86 343.129 446.896 342.161Z" fill="#FF748E"/>
<g opacity="0.1">
<path opacity="0.1" d="M520.066 273.532C519.66 274.012 519.355 274.569 519.169 275.169C518.837 274.142 518.745 273.052 518.901 271.984C519.056 270.915 519.455 269.897 520.066 269.007C520.874 268.074 522.052 267.529 522.79 266.543C522.79 266.543 522.878 266.384 522.931 266.296C523.338 267.031 523.54 267.861 523.516 268.701C523.491 269.541 523.24 270.358 522.79 271.067C521.964 272.053 520.874 272.616 520.066 273.532Z" fill="black"/>
<path opacity="0.1" d="M497.068 214.893C497.068 213.133 497.068 211.373 497.068 209.753C497.385 203.591 498.529 197.271 498.828 191.092C499.198 198.662 497.508 206.602 497.068 214.277C497.068 214.453 497.086 214.647 497.068 214.893Z" fill="black"/>
<path opacity="0.1" d="M426.609 290.479C430.792 295.391 434.079 281.255 434.8 275.674C434.914 276.644 434.967 277.62 434.958 278.596C434.853 282.117 431.302 300.514 426.609 295.004C423.428 291.272 423.094 284.916 423.305 279.054C423.533 283.543 424.236 287.698 426.609 290.479Z" fill="black"/>
<path opacity="0.1" d="M430.972 239.834C430.615 242.201 430.397 244.588 430.322 246.981C430.169 243.073 430.387 239.159 430.972 235.292C431.201 233.76 431.499 232.211 431.64 230.662C435.981 238.795 440.006 247.492 448.232 251.066C454.613 253.83 462.047 252.738 468.603 254.991C469.862 255.336 471 256.025 471.89 256.981C472.879 258.456 473.45 260.171 473.542 261.945C475.546 273.846 482.999 284.18 491.769 292.455C494.321 295.355 497.514 297.618 501.093 299.063C504.673 300.509 508.54 301.097 512.387 300.782C517.316 300.785 522.239 300.426 527.116 299.708C527.872 299.591 528.614 299.396 529.33 299.127C530.016 299.901 530.736 300.641 531.475 301.363C531.229 303.229 528.961 303.951 527.116 304.232C522.24 304.959 517.316 305.318 512.387 305.306C508.54 305.622 504.673 305.034 501.093 303.588C497.514 302.142 494.321 299.879 491.769 296.979C482.981 288.705 475.546 278.371 473.542 266.47C473.447 264.696 472.877 262.981 471.89 261.505C470.993 260.558 469.858 259.871 468.603 259.516C462.047 257.263 454.542 258.372 448.232 255.59C440.006 252.069 435.929 243.267 431.64 235.204C431.499 236.735 431.201 238.285 430.972 239.834Z" fill="black"/>
<path opacity="0.1" d="M378.198 200.49C378.707 202.779 379.358 205.771 381.309 207.321C384.613 209.891 385.281 206.968 386.582 204.31C389.904 197.374 398.446 200.789 404.703 204.081L408.06 208.394C409.584 210.184 410.866 212.167 411.874 214.292C412.518 216.015 413.046 217.78 413.456 219.574C414.335 222.637 415.6 225.559 416.743 228.534C421.287 240.482 423.621 253.159 423.633 265.945C423.633 266.526 423.633 267.159 423.633 267.811C423.32 255.927 420.996 244.182 416.76 233.076C415.618 230.101 414.352 227.161 413.474 224.098C413.064 222.304 412.535 220.54 411.892 218.817C410.884 216.692 409.601 214.709 408.078 212.919L404.72 208.606C398.463 205.278 389.921 201.898 386.599 208.835C385.316 211.493 384.648 214.433 381.326 211.845C379.375 210.313 378.725 207.303 378.215 205.014C376.89 199.71 376.298 194.248 376.457 188.783C376.739 192.724 377.321 196.638 378.198 200.49V200.49Z" fill="black"/>
</g>
<path d="M337.084 371.889L336.153 372.523C336.569 372.245 336.926 371.887 337.201 371.468C337.477 371.05 337.665 370.58 337.755 370.088C337.846 369.595 337.836 369.089 337.727 368.6C337.617 368.111 337.411 367.649 337.12 367.241L295.217 306.434C294.941 306.029 294.587 305.682 294.176 305.415C293.765 305.147 293.305 304.964 292.823 304.876C292.34 304.787 291.846 304.795 291.367 304.9C290.888 305.004 290.434 305.203 290.032 305.484L290.964 304.832C289.657 305.736 288.762 307.123 288.475 308.688C288.189 310.252 288.534 311.867 289.434 313.177L328.753 370.34C329.656 371.648 331.039 372.545 332.6 372.835C334.161 373.125 335.773 372.785 337.084 371.889V371.889Z" fill="#464353"/>
<path d="M290.526 305.06L289.817 305.549L335.941 372.618L336.65 372.128C337.318 371.667 337.776 370.96 337.923 370.161C338.07 369.362 337.894 368.537 337.434 367.868L294.79 305.859C294.33 305.19 293.623 304.732 292.825 304.585C292.028 304.437 291.204 304.614 290.536 305.074L290.526 305.06Z" fill="#FDFDFD"/>
<path d="M192.715 235.95L192.074 235.507H191.294H97.6126C69.5904 235.507 45.8417 231.804 29.126 220.32C12.6219 208.981 2.5 189.703 2.5 157.298V98.8982C2.5 66.2014 9.19074 42.2865 22.417 26.5666C35.5703 10.9334 55.5612 2.97217 83.2 2.97217H224.05C251.702 2.97217 273.908 10.9463 289.211 26.6991C304.523 42.4605 313.267 66.3601 313.267 98.8982V173.046C313.267 183.892 311.579 191.831 308.706 197.975C305.845 204.094 301.732 208.596 296.612 212.467C291.438 216.377 285.303 219.598 278.362 223.203L277.858 223.464C271.104 226.972 263.683 230.825 256.069 235.931L254.302 237.116L255.189 239.05L282.11 297.705L192.715 235.95Z" fill="white" stroke="#FF4F00" stroke-width="5"/>
<path d="M74.7031 80.2217V44.7217H80.3031V75.2717H99.3531V80.2217H74.7031ZM103.902 80.2217V44.7217H109.502V80.2217H103.902ZM138.525 53.0717C138.192 52.705 137.709 52.3217 137.075 51.9217C136.442 51.4883 135.692 51.0883 134.825 50.7217C133.992 50.355 133.059 50.055 132.025 49.8217C131.025 49.5883 129.992 49.4717 128.925 49.4717C126.559 49.4717 124.809 49.905 123.675 50.7717C122.575 51.6383 122.025 52.8383 122.025 54.3717C122.025 55.2383 122.192 55.955 122.525 56.5217C122.892 57.055 123.442 57.5383 124.175 57.9717C124.909 58.3717 125.825 58.7383 126.925 59.0717C128.025 59.3717 129.309 59.705 130.775 60.0717C132.575 60.505 134.192 60.9883 135.625 61.5217C137.092 62.055 138.325 62.705 139.325 63.4717C140.325 64.2383 141.092 65.1883 141.625 66.3217C142.192 67.4217 142.475 68.7717 142.475 70.3717C142.475 72.1717 142.125 73.7217 141.425 75.0217C140.759 76.3217 139.825 77.3883 138.625 78.2217C137.459 79.0217 136.092 79.6217 134.525 80.0217C132.959 80.3883 131.275 80.5717 129.475 80.5717C126.775 80.5717 124.159 80.1717 121.625 79.3717C119.125 78.5383 116.859 77.3383 114.825 75.7717L117.375 70.9717C117.809 71.405 118.425 71.8883 119.225 72.4217C120.059 72.955 121.009 73.455 122.075 73.9217C123.175 74.355 124.359 74.7383 125.625 75.0717C126.892 75.3717 128.209 75.5217 129.575 75.5217C131.775 75.5217 133.475 75.1383 134.675 74.3717C135.875 73.605 136.475 72.4717 136.475 70.9717C136.475 70.0717 136.242 69.3217 135.775 68.7217C135.342 68.1217 134.709 67.605 133.875 67.1717C133.042 66.705 132.025 66.2883 130.825 65.9217C129.625 65.555 128.259 65.1717 126.725 64.7717C124.959 64.305 123.409 63.8217 122.075 63.3217C120.775 62.7883 119.692 62.155 118.825 61.4217C117.959 60.6883 117.292 59.8383 116.825 58.8717C116.392 57.8717 116.175 56.6717 116.175 55.2717C116.175 53.5383 116.509 52.005 117.175 50.6717C117.842 49.305 118.742 48.1717 119.875 47.2717C121.042 46.3383 122.409 45.6383 123.975 45.1717C125.542 44.705 127.242 44.4717 129.075 44.4717C131.475 44.4717 133.692 44.855 135.725 45.6217C137.759 46.3883 139.542 47.3383 141.075 48.4717L138.525 53.0717ZM173.898 49.6717H162.098V80.2217H156.448V49.6717H144.598V44.7217H173.898V49.6717ZM191.748 80.4717C189.215 80.4717 186.898 79.9717 184.798 78.9717C182.731 77.9383 180.948 76.5883 179.448 74.9217C177.948 73.2217 176.781 71.2883 175.948 69.1217C175.148 66.955 174.748 64.7383 174.748 62.4717C174.748 60.105 175.181 57.8383 176.048 55.6717C176.915 53.505 178.098 51.5883 179.598 49.9217C181.131 48.255 182.931 46.9383 184.998 45.9717C187.098 44.9717 189.381 44.4717 191.848 44.4717C194.381 44.4717 196.681 45.005 198.748 46.0717C200.848 47.105 202.631 48.4717 204.098 50.1717C205.598 51.8717 206.748 53.805 207.548 55.9717C208.381 58.105 208.798 60.2883 208.798 62.5217C208.798 64.8883 208.365 67.155 207.498 69.3217C206.665 71.4883 205.481 73.405 203.948 75.0717C202.415 76.705 200.598 78.0217 198.498 79.0217C196.431 79.9883 194.181 80.4717 191.748 80.4717ZM180.448 62.4717C180.448 64.1383 180.715 65.755 181.248 67.3217C181.781 68.8883 182.531 70.2717 183.498 71.4717C184.498 72.6717 185.698 73.6383 187.098 74.3717C188.498 75.0717 190.065 75.4217 191.798 75.4217C193.598 75.4217 195.181 75.055 196.548 74.3217C197.948 73.555 199.131 72.555 200.098 71.3217C201.065 70.0883 201.798 68.705 202.298 67.1717C202.798 65.6383 203.048 64.0717 203.048 62.4717C203.048 60.7717 202.781 59.155 202.248 57.6217C201.715 56.055 200.948 54.6883 199.948 53.5217C198.981 52.3217 197.798 51.3717 196.398 50.6717C195.031 49.9383 193.498 49.5717 191.798 49.5717C189.998 49.5717 188.398 49.955 186.998 50.7217C185.598 51.455 184.415 52.4217 183.448 53.6217C182.481 54.8217 181.731 56.205 181.198 57.7717C180.698 59.305 180.448 60.8717 180.448 62.4717ZM235.596 53.0717C235.262 52.705 234.779 52.3217 234.146 51.9217C233.512 51.4883 232.762 51.0883 231.896 50.7217C231.062 50.355 230.129 50.055 229.096 49.8217C228.096 49.5883 227.062 49.4717 225.996 49.4717C223.629 49.4717 221.879 49.905 220.746 50.7717C219.646 51.6383 219.096 52.8383 219.096 54.3717C219.096 55.2383 219.262 55.955 219.596 56.5217C219.962 57.055 220.512 57.5383 221.246 57.9717C221.979 58.3717 222.896 58.7383 223.996 59.0717C225.096 59.3717 226.379 59.705 227.846 60.0717C229.646 60.505 231.262 60.9883 232.696 61.5217C234.162 62.055 235.396 62.705 236.396 63.4717C237.396 64.2383 238.162 65.1883 238.696 66.3217C239.262 67.4217 239.546 68.7717 239.546 70.3717C239.546 72.1717 239.196 73.7217 238.496 75.0217C237.829 76.3217 236.896 77.3883 235.696 78.2217C234.529 79.0217 233.162 79.6217 231.596 80.0217C230.029 80.3883 228.346 80.5717 226.546 80.5717C223.846 80.5717 221.229 80.1717 218.696 79.3717C216.196 78.5383 213.929 77.3383 211.896 75.7717L214.446 70.9717C214.879 71.405 215.496 71.8883 216.296 72.4217C217.129 72.955 218.079 73.455 219.146 73.9217C220.246 74.355 221.429 74.7383 222.696 75.0717C223.962 75.3717 225.279 75.5217 226.646 75.5217C228.846 75.5217 230.546 75.1383 231.746 74.3717C232.946 73.605 233.546 72.4717 233.546 70.9717C233.546 70.0717 233.312 69.3217 232.846 68.7217C232.412 68.1217 231.779 67.605 230.946 67.1717C230.112 66.705 229.096 66.2883 227.896 65.9217C226.696 65.555 225.329 65.1717 223.796 64.7717C222.029 64.305 220.479 63.8217 219.146 63.3217C217.846 62.7883 216.762 62.155 215.896 61.4217C215.029 60.6883 214.362 59.8383 213.896 58.8717C213.462 57.8717 213.246 56.6717 213.246 55.2717C213.246 53.5383 213.579 52.005 214.246 50.6717C214.912 49.305 215.812 48.1717 216.946 47.2717C218.112 46.3383 219.479 45.6383 221.046 45.1717C222.612 44.705 224.312 44.4717 226.146 44.4717C228.546 44.4717 230.762 44.855 232.796 45.6217C234.829 46.3883 236.612 47.3383 238.146 48.4717L235.596 53.0717ZM96.2607 130.222V94.7217H111.161C112.761 94.7217 114.227 95.055 115.561 95.7217C116.927 96.3883 118.094 97.2717 119.061 98.3717C120.027 99.4383 120.777 100.672 121.311 102.072C121.877 103.438 122.161 104.838 122.161 106.272C122.161 107.772 121.894 109.222 121.361 110.622C120.861 111.988 120.144 113.222 119.211 114.322C118.277 115.388 117.144 116.255 115.811 116.922C114.511 117.555 113.061 117.872 111.461 117.872H101.861V130.222H96.2607ZM101.861 112.922H111.111C111.911 112.922 112.627 112.755 113.261 112.422C113.927 112.088 114.494 111.622 114.961 111.022C115.427 110.422 115.794 109.722 116.061 108.922C116.327 108.122 116.461 107.238 116.461 106.272C116.461 105.272 116.311 104.372 116.011 103.572C115.711 102.772 115.294 102.088 114.761 101.522C114.227 100.922 113.611 100.472 112.911 100.172C112.244 99.8383 111.544 99.6717 110.811 99.6717H101.861V112.922ZM135.617 94.7217H140.517L154.517 130.222H148.617L144.867 120.572H131.167L127.467 130.222H121.517L135.617 94.7217ZM143.767 116.422L138.067 101.172L132.167 116.422H143.767ZM158.907 130.222V94.7217H174.357C175.957 94.7217 177.424 95.055 178.757 95.7217C180.124 96.3883 181.29 97.2717 182.257 98.3717C183.224 99.4383 183.974 100.672 184.507 102.072C185.074 103.438 185.357 104.838 185.357 106.272C185.357 107.472 185.191 108.622 184.857 109.722C184.524 110.822 184.057 111.838 183.457 112.772C182.857 113.705 182.124 114.522 181.257 115.222C180.391 115.888 179.441 116.388 178.407 116.722L186.757 130.222H180.407L172.707 117.872H164.507V130.222H158.907ZM164.507 112.922H174.307C175.107 112.922 175.824 112.755 176.457 112.422C177.124 112.055 177.691 111.572 178.157 110.972C178.624 110.338 178.991 109.622 179.257 108.822C179.524 108.022 179.657 107.172 179.657 106.272C179.657 105.372 179.491 104.522 179.157 103.722C178.857 102.922 178.44 102.222 177.907 101.622C177.407 101.022 176.807 100.555 176.107 100.222C175.44 99.855 174.74 99.6717 174.007 99.6717H164.507V112.922ZM201.877 94.7217H206.777L220.777 130.222H214.877L211.127 120.572H197.427L193.727 130.222H187.777L201.877 94.7217ZM210.027 116.422L204.327 101.172L198.427 116.422H210.027ZM63.9892 153.072C63.6559 152.705 63.1725 152.322 62.5392 151.922C61.9059 151.488 61.1559 151.088 60.2892 150.722C59.4559 150.355 58.5225 150.055 57.4892 149.822C56.4892 149.588 55.4559 149.472 54.3892 149.472C52.0225 149.472 50.2725 149.905 49.1392 150.772C48.0392 151.638 47.4892 152.838 47.4892 154.372C47.4892 155.238 47.6559 155.955 47.9892 156.522C48.3559 157.055 48.9059 157.538 49.6392 157.972C50.3725 158.372 51.2892 158.738 52.3892 159.072C53.4892 159.372 54.7725 159.705 56.2392 160.072C58.0392 160.505 59.6559 160.988 61.0892 161.522C62.5559 162.055 63.7892 162.705 64.7892 163.472C65.7892 164.238 66.5559 165.188 67.0892 166.322C67.6559 167.422 67.9392 168.772 67.9392 170.372C67.9392 172.172 67.5892 173.722 66.8892 175.022C66.2225 176.322 65.2892 177.388 64.0892 178.222C62.9225 179.022 61.5559 179.622 59.9892 180.022C58.4225 180.388 56.7392 180.572 54.9392 180.572C52.2392 180.572 49.6225 180.172 47.0892 179.372C44.5892 178.538 42.3225 177.338 40.2892 175.772L42.8392 170.972C43.2725 171.405 43.8892 171.888 44.6892 172.422C45.5225 172.955 46.4725 173.455 47.5392 173.922C48.6392 174.355 49.8225 174.738 51.0892 175.072C52.3559 175.372 53.6725 175.522 55.0392 175.522C57.2392 175.522 58.9392 175.138 60.1392 174.372C61.3392 173.605 61.9392 172.472 61.9392 170.972C61.9392 170.072 61.7059 169.322 61.2392 168.722C60.8059 168.122 60.1725 167.605 59.3392 167.172C58.5059 166.705 57.4892 166.288 56.2892 165.922C55.0892 165.555 53.7225 165.172 52.1892 164.772C50.4225 164.305 48.8725 163.822 47.5392 163.322C46.2392 162.788 45.1559 162.155 44.2892 161.422C43.4225 160.688 42.7559 159.838 42.2892 158.872C41.8559 157.872 41.6392 156.672 41.6392 155.272C41.6392 153.538 41.9725 152.005 42.6392 150.672C43.3059 149.305 44.2059 148.172 45.3392 147.272C46.5059 146.338 47.8725 145.638 49.4392 145.172C51.0059 144.705 52.7059 144.472 54.5392 144.472C56.9392 144.472 59.1559 144.855 61.1892 145.622C63.2225 146.388 65.0059 147.338 66.5392 148.472L63.9892 153.072ZM97.9056 175.272V180.222H73.5556V144.722H97.4556V149.672H79.1556V159.772H95.0056V164.422H79.1556V175.272H97.9056ZM103.683 180.222V144.722H119.133C120.733 144.722 122.199 145.055 123.533 145.722C124.899 146.388 126.066 147.272 127.033 148.372C127.999 149.438 128.749 150.672 129.283 152.072C129.849 153.438 130.133 154.838 130.133 156.272C130.133 157.472 129.966 158.622 129.633 159.722C129.299 160.822 128.833 161.838 128.233 162.772C127.633 163.705 126.899 164.522 126.033 165.222C125.166 165.888 124.216 166.388 123.183 166.722L131.533 180.222H125.183L117.483 167.872H109.283V180.222H103.683ZM109.283 162.922H119.083C119.883 162.922 120.599 162.755 121.233 162.422C121.899 162.055 122.466 161.572 122.933 160.972C123.399 160.338 123.766 159.622 124.033 158.822C124.299 158.022 124.433 157.172 124.433 156.272C124.433 155.372 124.266 154.522 123.933 153.722C123.633 152.922 123.216 152.222 122.683 151.622C122.183 151.022 121.583 150.555 120.883 150.222C120.216 149.855 119.516 149.672 118.783 149.672H109.283V162.922ZM138.159 144.722L148.859 173.172L159.509 144.722H165.459L151.259 180.222H146.459L132.209 144.722H138.159ZM169.796 180.222V144.722H175.396V180.222H169.796ZM183.419 180.222V144.722H198.869C200.469 144.722 201.936 145.055 203.269 145.722C204.636 146.388 205.802 147.272 206.769 148.372C207.736 149.438 208.486 150.672 209.019 152.072C209.586 153.438 209.869 154.838 209.869 156.272C209.869 157.472 209.702 158.622 209.369 159.722C209.036 160.822 208.569 161.838 207.969 162.772C207.369 163.705 206.636 164.522 205.769 165.222C204.902 165.888 203.952 166.388 202.919 166.722L211.269 180.222H204.919L197.219 167.872H189.019V180.222H183.419ZM189.019 162.922H198.819C199.619 162.922 200.336 162.755 200.969 162.422C201.636 162.055 202.202 161.572 202.669 160.972C203.136 160.338 203.502 159.622 203.769 158.822C204.036 158.022 204.169 157.172 204.169 156.272C204.169 155.372 204.002 154.522 203.669 153.722C203.369 152.922 202.952 152.222 202.419 151.622C201.919 151.022 201.319 150.555 200.619 150.222C199.952 149.855 199.252 149.672 198.519 149.672H189.019V162.922ZM241.988 149.672H230.188V180.222H224.538V149.672H212.688V144.722H241.988V149.672ZM271.099 175.272V180.222H246.749V144.722H270.649V149.672H252.349V159.772H268.199V164.422H252.349V175.272H271.099Z" fill="black"/>
<defs>
<linearGradient id="paint0_linear" x1="-86674.8" y1="661776" x2="-86674.8" y2="290664" gradientUnits="userSpaceOnUse">
<stop stop-color="#808080" stop-opacity="0.25"/>
<stop offset="0.54" stop-color="#808080" stop-opacity="0.12"/>
<stop offset="1" stop-color="#808080" stop-opacity="0.1"/>
</linearGradient>
</defs>
</svg>
