<svg width="1033" height="968" viewBox="0 0 1033 968" fill="none" xmlns="http://www.w3.org/2000/svg">
<ellipse cx="541.961" cy="934.793" rx="491.039" ry="32.7359" fill="#D7D7D7"/>
<path d="M286.434 298.92L286.346 298.797L286.505 298.673L287.454 298.04L287.26 298.18C287.941 297.786 288.744 297.662 289.512 297.831C290.28 298.001 290.956 298.452 291.408 299.096L291.795 299.642L313.151 330.415L316.877 335.89C328.143 332.492 346.44 346.787 355.703 354.991C356.283 355.502 356.828 355.977 357.32 356.435C358.058 354.78 358.498 353.724 358.498 353.724C358.955 358.759 376.707 366.311 380.855 369.058C382.74 370.198 384.852 370.907 387.042 371.135C386.445 351.998 401.226 331.859 401.226 331.859L437.346 285.822C438.675 277.496 437.385 268.963 433.655 261.404C433.356 260.805 433.057 260.207 432.723 259.644H432.548C433.914 263.512 434.679 267.567 434.815 271.668C434.727 274.784 431.845 289.889 427.784 289.272C427.382 289.314 426.976 289.244 426.61 289.07C426.244 288.896 425.933 288.625 425.71 288.287C422.476 284.519 422.195 278.111 422.353 272.178C422.409 273.922 422.603 275.659 422.933 277.372C422.67 272.442 423.232 267.231 423.232 263.517C423.232 262.038 423.232 260.577 423.127 259.098H422.687C422.687 259.661 422.687 260.26 422.687 260.858C422.687 260.242 422.687 259.644 422.687 259.098H422.23C414.129 257.613 406.537 254.087 400.172 248.852C398.6 248.788 397.057 248.412 395.632 247.743C394.208 247.075 392.931 246.13 391.876 244.961C391.49 246.248 391.432 247.611 391.705 248.927C391.978 250.243 392.574 251.469 393.44 252.496C388.606 252.267 384.511 248.5 382.648 244.081C381.052 239.568 380.581 234.733 381.277 229.997C381.972 225.258 382.319 220.474 382.314 215.684C381.981 213.099 381.84 210.492 381.892 207.885C381.97 207.089 382.111 206.3 382.314 205.526H382.173C381.71 205.536 381.25 205.454 380.818 205.285C380.387 205.115 379.993 204.863 379.66 204.54C377.656 202.991 377.006 199.963 376.496 197.639C375.109 192.291 374.482 186.773 374.633 181.249C374.739 182.922 374.949 184.612 375.196 186.284C374.756 179.946 375.635 173.785 379.818 169.19C382.701 166.039 386.726 164.19 390.593 162.342C391.975 161.846 393.193 160.975 394.108 159.824C394.791 158.468 395.164 156.977 395.198 155.458C396.551 146.198 405.251 139.755 413.917 136.093C425.06 131.234 438.524 129.157 449.157 134.931C454.43 137.73 458.473 142.114 463.219 145.688C469.16 150.212 476.014 153.381 482.359 157.324C488.705 161.268 494.663 166.268 497.774 173.063C502.432 183.626 498.934 195.597 498.354 207.058C497.423 225.103 504.84 244.028 519.534 254.591C521.295 255.672 522.868 257.034 524.192 258.622C524.837 259.427 525.221 260.41 525.29 261.44C525.359 262.47 525.111 263.496 524.578 264.379C523.822 265.365 522.627 265.928 521.801 266.862C520.131 268.763 520.465 271.668 521.116 274.097C523.25 282.046 527.503 289.263 533.419 294.976C533.156 296.843 530.853 297.582 528.972 297.864C523.997 298.597 518.974 298.961 513.944 298.955H511.783C512.011 299.536 512.257 300.152 512.503 300.804C515.228 307.986 518.76 319.042 517.583 325.802C515.825 336.471 510.201 385.254 512.978 393.81C515.755 402.366 508.513 464.405 508.513 464.405C508.513 464.405 507.547 469.194 505.877 476.341C510.218 486.587 515.175 497.96 517.653 502.52C522.645 511.657 520.184 558.309 502.977 579.048C502.977 579.048 495.946 589.118 497.704 592.762C499.461 596.406 497.387 602.832 497.387 602.832L494.663 663.199C494.721 669.368 495.144 675.529 495.929 681.649C503.276 690.75 514.595 704.024 519.92 706.19C528.164 709.552 589.646 784.25 589.646 784.25C589.646 784.25 589.154 785.148 588.188 786.609L589.945 788.616L601.739 802.312L602.671 803.386C604.885 802.964 619.632 800.288 631.32 799.443H632.48V799.231C636.577 798.761 640.719 798.874 644.784 799.566C645.553 799.708 646.262 800.076 646.823 800.622C650.813 805.516 652.957 882.344 652.957 882.344C652.957 882.344 648.704 920.81 635.381 922.958C634.701 923.194 633.99 923.325 633.271 923.345H632.691C623.2 922.641 618.841 917.201 616.872 913.469C616.29 912.354 615.847 911.172 615.554 909.948C615.554 909.948 617.101 903.1 612.953 893.646C608.805 884.192 601.054 867.556 601.054 867.556C601.054 867.556 586.992 852.75 589.506 845.567C589.119 844.986 588.662 844.352 588.17 843.631C582.897 836.096 572.211 821.22 563.563 811.291C563 810.622 562.438 810.005 561.805 809.389C558.659 810.719 555.367 811.671 551.998 812.224C551.998 812.224 538.78 807.048 533.876 795.464C531.785 790.534 523.576 781.803 514.841 773.405L515.122 775.641L515.421 849.123C512.58 851.078 509.554 852.746 506.387 854.106V855.866C506.325 866.336 506.959 876.799 508.285 887.185L508.548 888.822C509.638 888.048 510.587 887.784 511.185 888.382C513.892 891.129 515.579 908.663 515.737 916.744C515.737 917.008 515.737 917.272 515.737 917.553C516.177 925.616 520.764 937.341 506.949 937.94C496.614 938.38 452.058 939.049 428.224 939.401C415.383 939.644 402.891 935.209 393.071 926.919C385.495 920.423 380.908 912.694 391.225 907.008C391.858 906.656 392.526 906.321 393.264 905.987L416.114 902.466L455.151 882.502C455.151 882.502 455.38 870.425 460.072 872.432C461.467 872.737 462.802 873.266 464.027 873.999C464.256 873.559 464.502 873.083 464.73 872.591C467.91 866.28 469.56 859.308 469.546 852.239C469.546 851.606 469.546 850.954 469.458 850.303C468.315 849.259 467.235 848.148 466.224 846.976C466.224 846.976 466.523 819.53 463.447 814.354C460.371 809.178 450.845 756.716 450.845 756.716C450.845 756.716 450.546 746.963 444.394 741.171C438.242 735.379 440.404 718.601 440.404 718.601C440.404 718.601 431.792 714.024 429.032 699.095C426.273 684.166 417.344 651.562 417.344 651.562C417.344 651.562 398.906 603.378 400.119 572.904C401.332 542.43 398.361 526.55 398.361 526.55L394.53 455.708V454.617C393.001 455.779 391.964 456.73 391.964 456.73C391.964 456.73 391.964 456.448 391.964 455.955C391.401 456.43 391.085 456.73 391.085 456.73C391.085 456.73 389.116 424.583 389.784 411.837C379.027 408.175 362.646 402.155 361.662 399.091C360.291 394.532 341.835 380.113 341.835 380.113C342.234 380.048 342.617 379.905 342.96 379.691C342.38 379.427 341.783 379.11 341.203 378.775C329.11 372.297 306.647 353.354 310.426 341.805L285.819 306.437C285.048 305.302 284.689 303.938 284.801 302.57C284.913 301.202 285.489 299.914 286.434 298.92Z" fill="url(#paint0_linear)"/>
<path d="M343.67 384.34C345.466 385.467 347.467 386.227 349.558 386.575C357.239 386.804 363.619 365.978 363.619 365.978C363.619 365.978 361.44 363.76 357.96 360.696C347.66 351.524 326.058 334.588 315.934 344.06C304.509 354.64 330.364 377.174 343.67 384.34Z" fill="#DAA97A"/>
<path d="M460.438 881.028L488.789 911.678C488.789 911.678 515.013 911.978 509.881 897.489C508.856 894.348 508.126 891.118 507.702 887.841C506.41 877.553 505.793 867.191 505.856 856.822C505.856 850.026 505.961 845.255 505.961 845.255C505.961 845.255 464.674 827.14 468.893 846.012C469.417 848.372 469.7 850.778 469.736 853.195C469.753 860.19 468.14 867.092 465.026 873.353C463.751 876.056 462.215 878.627 460.438 881.028Z" fill="#DAA97A"/>
<path opacity="0.1" d="M460.438 881.024L488.789 911.674C488.789 911.674 515.013 911.974 509.881 897.485C508.856 894.344 508.126 891.114 507.702 887.837C503.958 890.742 498.579 899.298 498.579 899.298C498.579 899.298 480.493 904.58 475.519 888.735C472.742 879.933 468.348 875.479 464.973 873.349C463.715 876.049 462.197 878.62 460.438 881.024Z" fill="black"/>
<path d="M394.663 927.178C404.275 935.381 416.558 939.766 429.183 939.502C452.56 939.167 496.237 938.481 506.379 938.058C519.948 937.46 515.448 925.858 515.009 917.865C515.009 917.584 515.009 917.337 515.009 917.073C514.851 909.063 513.251 891.705 510.545 888.994C507.838 886.282 498.575 901.07 498.575 901.07C498.575 901.07 480.489 906.352 475.515 890.508C470.54 874.663 460.434 873.132 460.434 873.132C455.847 871.142 455.618 883.096 455.618 883.096L417.336 902.866L394.874 906.387C394.153 906.722 393.503 907.056 392.888 907.391C382.728 913.095 387.228 920.735 394.663 927.178Z" fill="#C17174"/>
<path opacity="0.25" d="M465.402 896.706C464.49 896.706 463.75 895.965 463.75 895.051C463.75 894.137 464.49 893.396 465.402 893.396C466.315 893.396 467.055 894.137 467.055 895.051C467.055 895.965 466.315 896.706 465.402 896.706Z" fill="white"/>
<path opacity="0.25" d="M449.858 904.422C448.945 904.422 448.205 903.681 448.205 902.767C448.205 901.853 448.945 901.112 449.858 901.112C450.77 901.112 451.51 901.853 451.51 902.767C451.51 903.681 450.77 904.422 449.858 904.422Z" fill="white"/>
<path opacity="0.25" d="M441.873 907.987C440.961 907.987 440.221 907.247 440.221 906.333C440.221 905.419 440.961 904.678 441.873 904.678C442.786 904.678 443.525 905.419 443.525 906.333C443.525 907.247 442.786 907.987 441.873 907.987Z" fill="white"/>
<path opacity="0.25" d="M433.748 911.653C432.836 911.653 432.096 910.913 432.096 909.999C432.096 909.085 432.836 908.344 433.748 908.344C434.661 908.344 435.4 909.085 435.4 909.999C435.4 910.913 434.661 911.653 433.748 911.653Z" fill="white"/>
<path d="M394.663 927.184C404.275 935.387 416.558 939.772 429.183 939.508C452.56 939.173 496.237 938.487 506.379 938.064C519.948 937.465 515.448 925.864 515.009 917.871L429.816 923.153C429.816 923.153 394.926 917.871 392.905 907.449C382.728 913.1 387.228 920.741 394.663 927.184Z" fill="#C17174"/>
<path opacity="0.25" d="M394.663 927.184C404.275 935.387 416.558 939.772 429.183 939.508C452.56 939.173 496.237 938.487 506.379 938.064C519.948 937.465 515.448 925.864 515.009 917.871L429.816 923.153C429.816 923.153 394.926 917.871 392.905 907.449C382.728 913.1 387.228 920.741 394.663 927.184Z" fill="white"/>
<path d="M553.275 804.041C556.41 806.603 559.273 809.482 561.818 812.632C570.272 822.456 580.73 837.279 585.915 844.638C587.919 847.525 589.132 849.338 589.132 849.338L600.451 847.666C600.451 847.666 612.649 828.952 612.491 828.512C612.332 828.072 602.824 807.967 602.824 807.967L599.15 803.654L587.567 790.098L582.294 783.972C582.294 783.972 543.063 796.647 553.275 804.041Z" fill="#DAA97A"/>
<path opacity="0.1" d="M585.915 844.67C587.919 847.557 589.132 849.37 589.132 849.37L600.451 847.698C600.451 847.698 612.649 828.984 612.491 828.544C612.332 828.104 602.824 807.964 602.824 807.964L599.15 803.65L597.955 803.879H595.072C605.179 814.442 594.334 837.681 594.334 837.681C594.334 837.681 589.659 838.121 585.915 844.67Z" fill="black"/>
<path d="M598.54 868.328C598.54 868.328 606.08 884.631 610.158 893.996C614.236 903.362 612.724 910.14 612.724 910.14C613.011 911.36 613.442 912.542 614.007 913.661C615.452 916.54 617.652 918.972 620.37 920.696C623.088 922.42 626.223 923.371 629.439 923.449H630.177C643.922 923.097 648.281 883.134 648.281 883.134C648.281 883.134 646.172 807.064 642.253 802.152C641.714 801.605 641.02 801.237 640.266 801.096C636.267 800.401 632.188 800.288 628.156 800.761C615.73 801.659 599.753 804.722 599.753 804.722H596.888C606.994 815.285 596.149 838.541 596.149 838.541C596.149 838.541 591.316 838.981 587.554 845.777C583.793 852.572 598.54 868.328 598.54 868.328Z" fill="#C17174"/>
<path opacity="0.25" d="M615.129 847.34C614.217 847.34 613.477 846.599 613.477 845.685C613.477 844.771 614.217 844.03 615.129 844.03C616.042 844.03 616.781 844.771 616.781 845.685C616.781 846.599 616.042 847.34 615.129 847.34Z" fill="white"/>
<path opacity="0.25" d="M615.969 860.532C615.056 860.532 614.317 859.791 614.317 858.878C614.317 857.964 615.056 857.223 615.969 857.223C616.881 857.223 617.621 857.964 617.621 858.878C617.621 859.791 616.881 860.532 615.969 860.532Z" fill="white"/>
<path d="M615.116 913.328C616.562 916.207 618.761 918.639 621.479 920.363C624.197 922.087 627.332 923.038 630.549 923.116H631.269C645.014 922.764 649.391 882.801 649.391 882.801C649.391 882.801 647.281 806.731 643.362 801.819C642.823 801.272 642.13 800.904 641.376 800.763C637.376 800.068 633.297 799.955 629.266 800.428C629.494 814.107 630.144 857.327 629.266 861.623C628.387 865.918 620.6 901.867 615.116 913.328Z" fill="#C17174"/>
<path opacity="0.25" d="M615.116 913.328C616.562 916.207 618.761 918.639 621.479 920.363C624.197 922.087 627.332 923.038 630.549 923.116H631.269C645.014 922.764 649.391 882.801 649.391 882.801C649.391 882.801 647.281 806.731 643.362 801.819C642.823 801.272 642.13 800.904 641.376 800.763C637.376 800.068 633.297 799.955 629.266 800.428C629.494 814.107 630.144 857.327 629.266 861.623C628.387 865.918 620.6 901.867 615.116 913.328Z" fill="white"/>
<path d="M631.283 923.155C645.028 922.803 649.404 882.84 649.404 882.84C649.404 882.84 647.295 806.77 643.376 801.858C642.837 801.311 642.144 800.943 641.389 800.802C638.507 805.097 635.976 814.604 638.261 835.518C642.549 875.147 637.382 877.647 637.382 877.647C637.382 877.647 630.931 911.325 631.283 923.155Z" fill="#C17174"/>
<path opacity="0.1" d="M631.283 923.155C645.028 922.803 649.404 882.84 649.404 882.84C649.404 882.84 647.295 806.77 643.376 801.858C642.837 801.311 642.144 800.943 641.389 800.802C638.507 805.097 635.976 814.604 638.261 835.518C642.549 875.147 637.382 877.647 637.382 877.647C637.382 877.647 630.931 911.325 631.283 923.155Z" fill="black"/>
<path opacity="0.1" d="M343.67 384.342C345.466 385.47 347.467 386.23 349.558 386.578C357.239 386.807 363.619 365.981 363.619 365.981C363.619 365.981 361.44 363.762 357.96 360.699C355.446 366.333 348.521 381.526 343.67 384.342Z" fill="black"/>
<path d="M392.962 376.843C392.962 376.843 386.634 377.301 382.574 374.589C378.514 371.878 361.095 364.396 360.638 359.414C360.638 359.414 350.251 384.765 344.363 385.68C344.363 385.68 362.449 399.94 363.802 404.465C365.156 408.989 400.432 420.098 400.432 420.098L392.962 376.843Z" fill="#FF748E"/>
<path opacity="0.1" d="M392.962 376.843C392.962 376.843 386.634 377.301 382.574 374.589C378.514 371.878 361.095 364.396 360.638 359.414C360.638 359.414 350.251 384.765 344.363 385.68C344.363 385.68 362.449 399.94 363.802 404.465C365.156 408.989 400.432 420.098 400.432 420.098L392.962 376.843Z" fill="black"/>
<path opacity="0.1" d="M553.261 804.041C556.396 806.603 559.258 809.482 561.803 812.632C575.443 806.911 584.231 795.221 587.57 790.098L582.297 783.972C582.297 783.972 543.049 796.647 553.261 804.041Z" fill="black"/>
<path d="M488.763 675.662C488.763 675.662 510.874 705.256 518.959 708.583C527.045 711.91 587.314 785.868 587.314 785.868C587.314 785.868 574.361 809.723 550.544 813.631C550.544 813.631 537.591 808.508 532.757 797.03C527.923 785.551 489.958 753.123 489.958 753.123L488.763 675.662Z" fill="#66A1CC"/>
<path opacity="0.1" d="M488.763 675.662C488.763 675.662 510.874 705.256 518.959 708.583C527.045 711.91 587.314 785.868 587.314 785.868C587.314 785.868 574.361 809.723 550.544 813.631C550.544 813.631 537.591 808.508 532.757 797.03C527.923 785.551 489.958 753.123 489.958 753.123L488.763 675.662Z" fill="#66A1CC"/>
<path opacity="0.1" d="M468.861 846.008C469.386 848.367 469.668 850.774 469.705 853.19C481.92 864.299 496.632 860.866 505.824 856.817C505.824 850.021 505.93 845.251 505.93 845.251C505.93 845.251 464.642 827.065 468.861 846.008Z" fill="black"/>
<path d="M395.62 452.169L396.059 460.514L399.821 530.669C399.821 530.669 402.844 546.373 401.578 576.548C400.313 606.722 418.522 654.537 418.522 654.537C418.522 654.537 427.31 686.842 429.982 701.63C432.654 716.418 441.125 720.995 441.125 720.995C441.125 720.995 439.016 737.596 445.045 743.336C451.074 749.075 451.373 758.722 451.373 758.722C451.373 758.722 460.723 810.656 463.676 815.797C466.629 820.938 466.4 848.102 466.4 848.102C485.981 871.34 514.613 850.215 514.613 850.215L514.314 777.454C514.314 777.454 506.176 710.432 500.147 701.066C494.119 691.701 494.119 666.05 494.119 666.05L496.808 606.194C496.808 606.194 498.952 599.856 497.107 596.23C495.261 592.603 502.256 582.656 502.256 582.656C519.148 562.112 521.591 515.916 516.652 506.956C511.713 497.995 497.107 461.676 497.107 461.676L476.946 449.898L440.51 450.972L395.62 452.169Z" fill="#66A1CC"/>
<path d="M400.445 344.233V364.162L413.575 358.493L426.67 352.842L455.179 324.762C455.179 324.762 477.729 310.097 489.787 296.735C496.677 289.112 500.139 281.912 494.075 278.109C491.137 276.182 488.48 273.853 486.184 271.191C480.124 264.035 474.855 256.244 470.47 247.952C470.277 247.618 470.083 247.283 469.908 246.949C464.037 236.157 460.153 226.95 460.153 226.95C460.153 226.95 443.631 232.231 433.015 239.766C432.153 240.365 431.345 240.981 430.571 241.615C424.648 246.473 421.695 252.177 427.162 257.741C428.566 259.195 429.864 260.748 431.046 262.388C431.929 263.607 432.739 264.876 433.472 266.191C433.788 266.789 434.104 267.37 434.386 267.951C438.043 275.445 439.307 283.884 438.006 292.123L400.445 344.233Z" fill="#DAA97A"/>
<path d="M402.84 202.098C402.154 203.295 401.205 204.316 400.572 205.531C399.506 208.211 399.161 211.125 399.57 213.981C399.913 218.495 399.617 223.035 398.691 227.466C397.76 231.445 396.02 235.283 395.879 239.367C395.686 245.124 398.674 250.458 401.556 255.44C399.99 255.393 398.45 255.026 397.03 254.363C395.61 253.701 394.339 252.755 393.295 251.585C392.914 252.855 392.852 254.199 393.116 255.499C393.38 256.798 393.961 258.012 394.807 259.032C390.079 258.803 386.019 255.071 384.261 250.705C382.657 246.194 382.192 241.355 382.908 236.621C383.596 231.928 383.937 227.192 383.927 222.449C383.6 219.886 383.465 217.303 383.523 214.72C383.962 209.597 387.038 205.143 390.132 200.989L396.248 192.573C396.673 191.885 397.282 191.331 398.006 190.971C403.789 188.507 404.457 199.175 402.84 202.098Z" fill="#2F2E41"/>
<path d="M384.186 218.718C384.184 229.833 388.07 240.598 395.17 249.141C402.27 257.683 412.134 263.464 423.048 265.477C425.89 265.994 428.772 266.253 431.661 266.251H431.872C432.381 266.251 432.909 266.251 433.418 266.251C442.722 265.906 451.718 262.827 459.288 257.399C466.857 251.97 472.666 244.432 475.989 235.722C479.313 227.011 480.006 217.514 477.981 208.413C475.956 199.311 471.304 191.007 464.602 184.534C457.9 178.062 449.446 173.706 440.291 172.011C431.137 170.315 421.687 171.353 413.117 174.997C404.547 178.64 397.237 184.728 392.096 192.502C386.955 200.276 384.21 209.393 384.204 218.718H384.186Z" fill="#DAA97A"/>
<path opacity="0.1" d="M425.439 336.241C425.439 336.241 401.535 349.744 407.652 338.354L438.85 292.159L403.433 337.738C403.433 337.738 380.83 368.845 393.186 390.27C393.186 390.27 394.944 408.086 392.887 412.312C390.831 416.537 393.485 461.605 393.485 461.605C393.485 461.605 401.939 453.753 406.457 455.25C410.974 456.746 442.857 459.422 442.857 459.422L425.439 336.241Z" fill="black"/>
<path opacity="0.1" d="M395.618 452.168L396.057 460.513C398.922 458.435 402.912 456.112 405.566 456.992C410.083 458.506 442.02 461.235 442.02 461.235L440.561 450.83L395.618 452.168Z" fill="black"/>
<path d="M424.548 336.241C424.548 336.241 400.627 349.744 406.761 338.354L437.959 292.159L402.543 337.738C402.543 337.738 379.939 368.845 392.296 390.27C392.296 390.27 394.053 408.086 391.997 412.312C389.94 416.537 392.594 461.605 392.594 461.605C392.594 461.605 401.031 453.753 405.548 455.25C410.065 456.746 442.02 459.493 442.02 459.493L424.548 336.241Z" fill="#CCCCCC"/>
<path opacity="0.1" d="M411.769 359.384C413.158 373.908 419.116 391.179 419.116 391.179C419.116 391.179 423.335 434.046 428.801 446.792C434.267 459.538 431.824 476.985 434.83 509.29C435.919 520.926 439.663 528.919 444.708 534.306C453.004 543.108 464.85 545.027 474.201 544.482L476.416 544.306C491.496 542.809 505.962 470.048 505.962 470.048C505.962 470.048 512.887 408.15 510.18 399.629C507.473 391.108 512.852 342.924 514.662 332.361C515.822 325.654 512.36 314.756 509.688 307.609C508.124 303.489 506.841 300.567 506.841 300.567C506.841 300.567 501.708 284.265 493.272 275.814C492.108 274.618 490.717 273.668 489.18 273.021C487.643 272.374 485.992 272.043 484.325 272.047C480.359 272.208 476.507 273.423 473.164 275.568C473.029 275.646 472.899 275.734 472.777 275.832C472.777 275.832 417.904 331.991 412.789 344.966C411.365 348.61 411.224 353.786 411.769 359.384Z" fill="black"/>
<path d="M413.558 358.49C414.964 372.997 420.923 390.267 420.923 390.267C420.923 390.267 425.141 433.152 430.572 445.828C436.004 458.503 433.578 476.02 436.601 508.325C437.691 519.944 441.435 527.937 446.479 533.341C454.775 542.144 466.622 544.045 475.973 543.517L478.187 543.341C493.268 541.827 507.733 469.066 507.733 469.066C507.733 469.066 514.658 407.185 511.952 398.735C509.245 390.285 514.658 341.977 516.469 331.396C517.629 324.707 514.166 313.792 511.495 306.644C509.93 302.525 508.647 299.69 508.647 299.69C508.647 299.69 503.515 283.388 495.078 274.938C493.918 273.738 492.527 272.787 490.989 272.143C489.452 271.498 487.799 271.173 486.132 271.188C482.162 271.331 478.306 272.548 474.971 274.709L474.584 274.955C474.584 274.955 419.71 331.115 414.595 344.09C413.172 347.699 412.978 352.892 413.558 358.49Z" fill="#FF748E"/>
<path opacity="0.1" d="M475.036 579.508C475.036 579.508 487.48 590.599 491.769 590.071C496.057 589.543 475.036 579.508 475.036 579.508Z" fill="black"/>
<path opacity="0.1" d="M465.535 570.669C465.535 570.669 478.015 624.787 452.986 628.132C427.957 631.476 435.691 566.515 435.691 566.515L465.535 570.669Z" fill="black"/>
<path d="M466.445 569.774C466.445 569.774 478.854 623.891 453.878 627.271C428.901 630.651 436.6 565.654 436.6 565.654L466.445 569.774Z" fill="#DAA97A"/>
<path opacity="0.1" d="M384.498 213.463C385.194 212.428 385.783 211.325 386.256 210.171C389.578 203.234 398.12 206.65 404.377 209.942L407.717 214.255C409.24 216.045 410.523 218.028 411.531 220.153C412.172 221.878 412.706 223.642 413.13 225.434C413.991 228.497 415.257 231.42 416.399 234.412C420.189 244.363 422.435 254.836 423.061 265.467C425.903 265.985 428.785 266.244 431.673 266.242H431.884V266.031C431.568 264.834 431.304 263.619 431.058 262.404C429.75 255.554 429.589 248.533 430.584 241.63C430.584 241.472 430.584 241.331 430.584 241.173C430.812 239.641 431.111 238.092 431.234 236.56C431.814 237.617 432.376 238.69 432.992 239.782C436.771 246.824 440.743 253.866 447.879 256.947C450.775 258.085 453.827 258.774 456.931 258.989C460.762 259.194 464.559 259.825 468.25 260.873C469.509 261.217 470.647 261.906 471.537 262.862C472.53 264.334 473.102 266.051 473.189 267.826C473.57 270.169 474.158 272.472 474.947 274.71C478.174 283.063 483.217 290.593 489.711 296.751L491.346 298.336C494.129 301.213 497.45 303.516 501.118 305.113C504.451 306.236 507.956 306.76 511.471 306.663C509.906 302.543 508.623 299.709 508.623 299.709C508.623 299.709 503.491 283.407 495.054 274.956C493.894 273.757 492.503 272.806 490.965 272.161C489.428 271.517 487.775 271.192 486.108 271.207C479.81 263.749 474.352 255.62 469.832 246.965C474.152 241.094 477.064 234.307 478.345 227.128C479.626 219.949 479.241 212.571 477.219 205.565C475.197 198.559 471.593 192.113 466.685 186.726C461.778 181.339 455.698 177.155 448.918 174.498C442.137 171.842 434.837 170.783 427.583 171.405C420.328 172.027 413.314 174.312 407.083 178.084C400.851 181.856 395.57 187.014 391.648 193.158C387.725 199.302 385.267 206.267 384.463 213.516L384.498 213.463Z" fill="black"/>
<path d="M415.791 241.017C430.941 241.777 436.755 217.395 451.822 217.395C466.89 217.395 450.953 250.849 432.824 267.264" stroke="white" stroke-opacity="0.5"/>
<path d="M417.104 237.741C409.578 241.971 401.937 244.805 390.244 241.022C395.836 261.261 406.636 266.17 434.137 267.925C419.276 259.485 416.636 250.42 417.104 237.741Z" fill="#A7E6F4"/>
<path d="M381.465 176.375C384.277 173.241 388.232 171.41 392.011 169.597C393.356 169.086 394.54 168.223 395.438 167.097C396.094 165.752 396.454 164.281 396.493 162.784C397.811 153.594 406.353 147.239 414.843 143.507C425.775 138.701 438.905 136.641 449.398 142.345C454.495 145.126 458.52 149.475 463.126 153.013C468.961 157.485 475.675 160.619 481.897 164.527C488.119 168.435 494.06 173.329 497.013 180.125C501.583 190.512 498.155 202.43 497.575 213.768C496.679 231.654 503.938 250.333 518.351 260.913C520.087 261.979 521.632 263.33 522.921 264.91C523.551 265.708 523.924 266.68 523.989 267.695C524.055 268.711 523.811 269.722 523.29 270.596C522.569 271.582 521.374 272.145 520.583 273.061C518.931 274.944 519.265 277.814 519.915 280.243C521.997 288.092 526.164 295.228 531.973 300.894C531.727 302.76 529.477 303.482 527.631 303.763C522.749 304.491 517.82 304.849 512.885 304.837C509.038 305.153 505.171 304.565 501.592 303.119C498.012 301.673 494.819 299.41 492.267 296.51C483.479 288.236 476.044 277.902 474.058 266.001C473.955 264.229 473.385 262.516 472.406 261.037C471.503 260.097 470.37 259.411 469.119 259.047C462.563 256.794 455.058 257.903 448.748 255.121C440.522 251.6 436.444 242.798 432.138 234.735C431.998 236.267 431.716 237.816 431.47 239.365C430.215 247.65 430.634 256.103 432.701 264.223C433.878 268.818 435.583 273.395 435.46 278.131C435.372 281.652 431.804 300.049 427.111 294.538C422.418 289.028 424.141 276.846 424.141 270.015C424.136 257.227 421.794 244.548 417.233 232.605C416.108 229.629 414.825 226.69 413.964 223.626C413.538 221.837 413.01 220.074 412.382 218.345C411.362 216.223 410.074 214.241 408.55 212.447L405.193 208.134C398.936 204.807 390.394 201.427 387.072 208.363C385.807 211.021 385.121 213.961 381.799 211.373C379.848 209.842 379.215 206.831 378.706 204.543C376.614 194.948 374.891 183.663 381.465 176.375Z" fill="#2F2E41"/>
<path opacity="0.1" d="M445.093 342.584C446.376 310.068 491.811 303.343 502.41 334.099C502.496 334.305 502.566 334.516 502.621 334.733C509.563 355.559 506.54 408.303 506.54 408.303C506.54 408.303 505.644 443.724 502.322 455.502C499 467.279 489.667 501.081 489.667 506.556C489.667 512.031 481.002 532.822 477.363 534.336C473.725 535.85 471.879 547.61 470.983 549.723C470.087 551.835 467.468 579.316 467.468 579.316C467.468 579.316 433.404 577.204 432.807 571.764C432.209 566.324 440.347 539.758 440.347 539.758C440.347 539.758 446.341 528.896 447.114 520.147C447.887 511.397 452.598 507.418 451.666 501.38C450.735 495.341 454.391 492.331 454.391 488.405C454.391 484.479 457.098 473.916 457.098 473.916C457.098 473.916 462.827 469.374 461.913 463.952C461 458.53 470.051 447.65 467.643 443.724C465.235 439.798 464.638 430.133 464.638 430.133C464.638 430.133 461.615 386.667 459.506 374.889C457.396 363.112 445.04 344.098 445.04 344.098C445.04 344.098 445.058 343.553 445.093 342.584Z" fill="black"/>
<path opacity="0.1" d="M446.489 533.341C454.786 542.144 466.632 544.045 475.983 543.517C477.073 539.397 478.654 534.327 480.957 533.377C484.613 531.863 493.261 511.036 493.261 505.614C493.261 500.191 502.594 466.355 505.916 454.56C509.238 442.764 510.134 407.379 510.134 407.379C510.134 407.379 513.157 354.564 506.214 333.791C506.214 333.597 506.091 333.386 506.004 333.174C495.458 302.401 449.97 309.144 448.687 341.66C448.687 342.628 448.687 343.156 448.687 343.156C448.687 343.156 460.99 362.17 463.152 373.947C465.314 385.725 468.249 429.191 468.249 429.191C468.249 429.191 468.864 438.856 471.272 442.782C473.68 446.708 464.646 457.588 465.542 463.01C466.439 468.432 460.726 472.974 460.726 472.974C460.726 472.974 458.02 483.537 458.02 487.481C458.02 491.424 454.399 494.417 455.295 500.455C456.192 506.494 451.376 510.42 450.602 519.169C449.957 524.075 448.57 528.853 446.489 533.341Z" fill="black"/>
<path d="M446.896 341.689C448.179 309.173 493.614 302.448 504.212 333.203L504.423 333.82C511.366 354.664 508.343 407.408 508.343 407.408C508.343 407.408 507.447 442.811 504.125 454.589C500.803 466.366 491.47 500.185 491.47 505.643C491.47 511.1 482.804 531.909 479.166 533.423C475.528 534.937 473.682 546.715 472.786 548.827C471.889 550.94 469.27 578.403 469.27 578.403C469.27 578.403 435.207 576.291 434.61 570.868C434.012 565.446 442.132 538.863 442.132 538.863C442.132 538.863 448.143 527.983 448.917 519.234C449.69 510.484 454.506 506.558 453.592 500.52C452.678 494.481 456.317 491.453 456.317 487.527C456.317 483.601 459.023 473.038 459.023 473.038C459.023 473.038 464.753 468.514 463.839 463.074C462.925 457.634 471.977 446.772 469.569 442.846C467.161 438.92 466.564 429.273 466.564 429.273C466.564 429.273 463.54 385.789 461.431 374.011C459.322 362.234 446.966 343.22 446.966 343.22C446.966 343.22 446.86 342.657 446.896 341.689Z" fill="#FF748E"/>
<g opacity="0.1">
<path opacity="0.1" d="M520.066 273.06C519.66 273.539 519.355 274.096 519.169 274.697C518.837 273.67 518.745 272.58 518.901 271.512C519.056 270.443 519.455 269.425 520.066 268.535C520.874 267.602 522.052 267.057 522.79 266.071C522.79 266.071 522.878 265.912 522.931 265.824C523.338 266.558 523.54 267.389 523.516 268.229C523.491 269.069 523.24 269.886 522.79 270.595C521.964 271.581 520.874 272.144 520.066 273.06Z" fill="black"/>
<path opacity="0.1" d="M497.068 214.421C497.068 212.661 497.068 210.9 497.068 209.281C497.385 203.119 498.529 196.799 498.828 190.62C499.198 198.19 497.508 206.129 497.068 213.805C497.068 213.981 497.086 214.175 497.068 214.421Z" fill="black"/>
<path opacity="0.1" d="M426.609 290.007C430.792 294.919 434.079 280.782 434.8 275.202C434.914 276.171 434.967 277.148 434.958 278.124C434.853 281.645 431.302 300.042 426.609 294.532C423.428 290.8 423.094 284.444 423.305 278.582C423.533 283.071 424.236 287.226 426.609 290.007Z" fill="black"/>
<path opacity="0.1" d="M430.972 239.362C430.615 241.729 430.397 244.116 430.322 246.509C430.169 242.601 430.387 238.687 430.972 234.82C431.201 233.288 431.499 231.739 431.64 230.189C435.981 238.323 440.006 247.02 448.232 250.593C454.613 253.357 462.047 252.266 468.603 254.519C469.862 254.864 471 255.553 471.89 256.509C472.879 257.983 473.45 259.699 473.542 261.473C475.546 273.374 482.999 283.708 491.769 291.982C494.321 294.882 497.514 297.146 501.093 298.591C504.673 300.037 508.54 300.625 512.387 300.309C517.316 300.313 522.239 299.954 527.116 299.236C527.872 299.119 528.614 298.924 529.33 298.655C530.016 299.429 530.736 300.169 531.475 300.89C531.229 302.757 528.961 303.478 527.116 303.76C522.24 304.487 517.316 304.846 512.387 304.834C508.54 305.15 504.673 304.561 501.093 303.116C497.514 301.67 494.321 299.407 491.769 296.507C482.981 288.233 475.546 277.899 473.542 265.998C473.447 264.224 472.877 262.509 471.89 261.033C470.993 260.086 469.858 259.399 468.603 259.044C462.047 256.79 454.542 257.899 448.232 255.118C440.006 251.597 435.929 242.795 431.64 234.732C431.499 236.263 431.201 237.812 430.972 239.362Z" fill="black"/>
<path opacity="0.1" d="M378.198 200.018C378.707 202.306 379.358 205.299 381.309 206.848C384.613 209.419 385.281 206.496 386.582 203.838C389.904 196.902 398.446 200.317 404.703 203.609L408.06 207.922C409.584 209.712 410.866 211.695 411.874 213.82C412.518 215.543 413.046 217.308 413.456 219.101C414.335 222.165 415.6 225.087 416.743 228.062C421.287 240.01 423.621 252.687 423.633 265.472C423.633 266.053 423.633 266.687 423.633 267.339C423.32 255.454 420.996 243.71 416.76 232.604C415.618 229.629 414.352 226.689 413.474 223.626C413.064 221.832 412.535 220.068 411.892 218.344C410.884 216.22 409.601 214.237 408.078 212.447L404.72 208.134C398.463 204.806 389.921 201.426 386.599 208.362C385.316 211.021 384.648 213.961 381.326 211.373C379.375 209.841 378.725 206.831 378.215 204.542C376.89 199.238 376.298 193.776 376.457 188.311C376.739 192.252 377.321 196.165 378.198 200.018Z" fill="black"/>
</g>
<path d="M337.084 371.417L336.153 372.051C336.569 371.773 336.926 371.415 337.201 370.996C337.477 370.578 337.665 370.108 337.755 369.615C337.846 369.123 337.836 368.617 337.727 368.128C337.617 367.639 337.411 367.177 337.12 366.769L295.217 305.962C294.941 305.557 294.587 305.21 294.176 304.943C293.765 304.675 293.305 304.492 292.823 304.403C292.34 304.315 291.846 304.323 291.367 304.428C290.888 304.532 290.434 304.73 290.032 305.011L290.964 304.36C289.657 305.264 288.762 306.651 288.475 308.216C288.189 309.78 288.534 311.395 289.434 312.705L328.753 369.868C329.656 371.175 331.039 372.072 332.6 372.363C334.161 372.653 335.773 372.313 337.084 371.417Z" fill="#464353"/>
<path d="M290.526 304.587L289.817 305.077L335.941 372.145L336.65 371.656C337.318 371.195 337.776 370.487 337.923 369.688C338.07 368.889 337.894 368.064 337.434 367.395L294.79 305.387C294.33 304.718 293.623 304.259 292.825 304.112C292.028 303.965 291.204 304.141 290.536 304.602L290.526 304.587Z" fill="#FDFDFD"/>
<path d="M192.715 235.478L192.074 235.035H191.294H97.6126C69.5904 235.035 45.8417 231.332 29.126 219.848C12.6219 208.509 2.5 189.231 2.5 156.825V98.426C2.5 65.7292 9.19074 41.8143 22.417 26.0944C35.5703 10.4612 55.5612 2.5 83.2 2.5H224.05C251.702 2.5 273.908 10.4742 289.211 26.2269C304.523 41.9883 313.267 65.8879 313.267 98.426V172.574C313.267 183.42 311.579 191.359 308.706 197.503C305.845 203.621 301.732 208.124 296.612 211.995C291.438 215.905 285.303 219.126 278.362 222.73L277.858 222.992C271.104 226.499 263.683 230.353 256.069 235.458L254.302 236.644L255.189 238.578L282.11 297.233L192.715 235.478Z" fill="white" stroke="#FF4F00" stroke-width="5"/>
<path d="M40.2548 79.7495V44.2495H55.7048C57.3048 44.2495 58.7715 44.5828 60.1048 45.2495C61.4715 45.9162 62.6382 46.7995 63.6048 47.8995C64.5715 48.9662 65.3215 50.1995 65.8548 51.5995C66.4215 52.9662 66.7048 54.3662 66.7048 55.7995C66.7048 56.9995 66.5382 58.1495 66.2048 59.2495C65.8715 60.3495 65.4048 61.3662 64.8048 62.2995C64.2048 63.2328 63.4715 64.0495 62.6048 64.7495C61.7382 65.4162 60.7882 65.9162 59.7548 66.2495L68.1048 79.7495H61.7548L54.0548 67.3995H45.8548V79.7495H40.2548ZM45.8548 62.4495H55.6548C56.4548 62.4495 57.1715 62.2828 57.8048 61.9495C58.4715 61.5828 59.0382 61.0995 59.5048 60.4995C59.9715 59.8662 60.3382 59.1495 60.6048 58.3495C60.8715 57.5495 61.0048 56.6995 61.0048 55.7995C61.0048 54.8995 60.8382 54.0495 60.5048 53.2495C60.2048 52.4495 59.7882 51.7495 59.2548 51.1495C58.7548 50.5495 58.1548 50.0828 57.4548 49.7495C56.7882 49.3828 56.0882 49.1995 55.3548 49.1995H45.8548V62.4495ZM97.6615 74.7995V79.7495H73.3115V44.2495H97.2115V49.1995H78.9115V59.2995H94.7615V63.9495H78.9115V74.7995H97.6615ZM113.888 44.2495H118.788L132.788 79.7495H126.888L123.138 70.0995H109.438L105.738 79.7495H99.7884L113.888 44.2495ZM122.038 65.9495L116.338 50.6995L110.438 65.9495H122.038ZM137.179 79.7495V44.2495H149.779C152.645 44.2495 155.145 44.7162 157.279 45.6495C159.445 46.5828 161.245 47.8495 162.679 49.4495C164.145 51.0495 165.245 52.9328 165.979 55.0995C166.712 57.2328 167.079 59.5162 167.079 61.9495C167.079 64.6495 166.662 67.0995 165.829 69.2995C165.029 71.4662 163.879 73.3328 162.379 74.8995C160.879 76.4328 159.062 77.6328 156.929 78.4995C154.795 79.3328 152.412 79.7495 149.779 79.7495H137.179ZM161.379 61.9495C161.379 60.0828 161.112 58.3662 160.579 56.7995C160.079 55.2328 159.329 53.8995 158.329 52.7995C157.329 51.6662 156.112 50.7828 154.679 50.1495C153.245 49.5162 151.612 49.1995 149.779 49.1995H142.779V74.7995H149.779C151.645 74.7995 153.295 74.4828 154.729 73.8495C156.195 73.1828 157.412 72.2828 158.379 71.1495C159.379 69.9828 160.129 68.6162 160.629 67.0495C161.129 65.4828 161.379 63.7828 161.379 61.9495ZM173.372 44.2495L183.172 62.0495L193.072 44.2495H199.222L185.972 67.0495V79.7495H180.372V66.9495L167.222 44.2495H173.372ZM238.912 49.1995H227.112V79.7495H221.462V49.1995H209.612V44.2495H238.912V49.1995ZM256.763 79.9995C254.229 79.9995 251.913 79.4995 249.813 78.4995C247.746 77.4662 245.963 76.1162 244.463 74.4495C242.963 72.7495 241.796 70.8162 240.963 68.6495C240.163 66.4828 239.763 64.2662 239.763 61.9995C239.763 59.6328 240.196 57.3662 241.063 55.1995C241.929 53.0328 243.113 51.1162 244.613 49.4495C246.146 47.7828 247.946 46.4662 250.013 45.4995C252.113 44.4995 254.396 43.9995 256.863 43.9995C259.396 43.9995 261.696 44.5328 263.763 45.5995C265.863 46.6328 267.646 47.9995 269.113 49.6995C270.613 51.3995 271.763 53.3328 272.563 55.4995C273.396 57.6328 273.813 59.8162 273.813 62.0495C273.813 64.4162 273.379 66.6828 272.513 68.8495C271.679 71.0162 270.496 72.9328 268.963 74.5995C267.429 76.2328 265.613 77.5495 263.513 78.5495C261.446 79.5162 259.196 79.9995 256.763 79.9995ZM245.463 61.9995C245.463 63.6662 245.729 65.2828 246.263 66.8495C246.796 68.4162 247.546 69.7995 248.513 70.9995C249.513 72.1995 250.713 73.1662 252.113 73.8995C253.513 74.5995 255.079 74.9495 256.813 74.9495C258.613 74.9495 260.196 74.5828 261.563 73.8495C262.963 73.0828 264.146 72.0828 265.113 70.8495C266.079 69.6162 266.813 68.2328 267.313 66.6995C267.813 65.1662 268.063 63.5995 268.063 61.9995C268.063 60.2995 267.796 58.6828 267.263 57.1495C266.729 55.5828 265.963 54.2162 264.963 53.0495C263.996 51.8495 262.813 50.8995 261.413 50.1995C260.046 49.4662 258.513 49.0995 256.813 49.0995C255.013 49.0995 253.413 49.4828 252.013 50.2495C250.613 50.9828 249.429 51.9495 248.463 53.1495C247.496 54.3495 246.746 55.7328 246.213 57.2995C245.713 58.8328 245.463 60.3995 245.463 61.9995ZM96.289 102.6C95.9557 102.233 95.4723 101.85 94.839 101.45C94.2057 101.016 93.4557 100.616 92.589 100.25C91.7557 99.8828 90.8223 99.5828 89.789 99.3495C88.789 99.1162 87.7557 98.9995 86.689 98.9995C84.3223 98.9995 82.5723 99.4328 81.439 100.3C80.339 101.166 79.789 102.366 79.789 103.9C79.789 104.766 79.9557 105.483 80.289 106.05C80.6557 106.583 81.2057 107.066 81.939 107.5C82.6723 107.9 83.589 108.266 84.689 108.6C85.789 108.9 87.0723 109.233 88.539 109.6C90.339 110.033 91.9557 110.516 93.389 111.05C94.8557 111.583 96.089 112.233 97.089 113C98.089 113.766 98.8557 114.716 99.389 115.85C99.9557 116.95 100.239 118.3 100.239 119.9C100.239 121.7 99.889 123.25 99.189 124.55C98.5223 125.85 97.589 126.916 96.389 127.75C95.2223 128.55 93.8557 129.15 92.289 129.55C90.7223 129.916 89.039 130.1 87.239 130.1C84.539 130.1 81.9223 129.7 79.389 128.9C76.889 128.066 74.6223 126.866 72.589 125.3L75.139 120.5C75.5723 120.933 76.189 121.416 76.989 121.95C77.8223 122.483 78.7723 122.983 79.839 123.45C80.939 123.883 82.1223 124.266 83.389 124.6C84.6557 124.9 85.9723 125.05 87.339 125.05C89.539 125.05 91.239 124.666 92.439 123.9C93.639 123.133 94.239 122 94.239 120.5C94.239 119.6 94.0057 118.85 93.539 118.25C93.1057 117.65 92.4723 117.133 91.639 116.7C90.8057 116.233 89.789 115.816 88.589 115.45C87.389 115.083 86.0223 114.7 84.489 114.3C82.7223 113.833 81.1723 113.35 79.839 112.85C78.539 112.316 77.4557 111.683 76.589 110.95C75.7223 110.216 75.0557 109.366 74.589 108.4C74.1557 107.4 73.939 106.2 73.939 104.8C73.939 103.066 74.2723 101.533 74.939 100.2C75.6057 98.8328 76.5057 97.6995 77.639 96.7995C78.8057 95.8662 80.1723 95.1662 81.739 94.6995C83.3057 94.2328 85.0057 93.9995 86.839 93.9995C89.239 93.9995 91.4557 94.3828 93.489 95.1495C95.5223 95.9162 97.3057 96.8662 98.839 97.9995L96.289 102.6ZM130.205 124.8V129.75H105.855V94.2495H129.755V99.1995H111.455V109.3H127.305V113.95H111.455V124.8H130.205ZM135.982 129.75V94.2495H151.432C153.032 94.2495 154.499 94.5828 155.832 95.2495C157.199 95.9162 158.366 96.7995 159.332 97.8995C160.299 98.9662 161.049 100.2 161.582 101.6C162.149 102.966 162.432 104.366 162.432 105.8C162.432 107 162.266 108.15 161.932 109.25C161.599 110.35 161.132 111.366 160.532 112.3C159.932 113.233 159.199 114.05 158.332 114.75C157.466 115.416 156.516 115.916 155.482 116.25L163.832 129.75H157.482L149.782 117.4H141.582V129.75H135.982ZM141.582 112.45H151.382C152.182 112.45 152.899 112.283 153.532 111.95C154.199 111.583 154.766 111.1 155.232 110.5C155.699 109.866 156.066 109.15 156.332 108.35C156.599 107.55 156.732 106.7 156.732 105.8C156.732 104.9 156.566 104.05 156.232 103.25C155.932 102.45 155.516 101.75 154.982 101.15C154.482 100.55 153.882 100.083 153.182 99.7495C152.516 99.3828 151.816 99.1995 151.082 99.1995H141.582V112.45ZM170.459 94.2495L181.159 122.7L191.809 94.2495H197.759L183.559 129.75H178.759L164.509 94.2495H170.459ZM226.446 124.8V129.75H202.096V94.2495H225.996V99.1995H207.696V109.3H223.546V113.95H207.696V124.8H226.446ZM109.701 144.25L119.501 162.05L129.401 144.25H135.551L122.301 167.05V179.75H116.701V166.95L103.551 144.25H109.701ZM152.319 180C149.786 180 147.469 179.5 145.369 178.5C143.303 177.466 141.519 176.116 140.019 174.45C138.519 172.75 137.353 170.816 136.519 168.65C135.719 166.483 135.319 164.266 135.319 162C135.319 159.633 135.753 157.366 136.619 155.2C137.486 153.033 138.669 151.116 140.169 149.45C141.703 147.783 143.503 146.466 145.569 145.5C147.669 144.5 149.953 144 152.419 144C154.953 144 157.253 144.533 159.319 145.6C161.419 146.633 163.203 148 164.669 149.7C166.169 151.4 167.319 153.333 168.119 155.5C168.953 157.633 169.369 159.816 169.369 162.05C169.369 164.416 168.936 166.683 168.069 168.85C167.236 171.016 166.053 172.933 164.519 174.6C162.986 176.233 161.169 177.55 159.069 178.55C157.003 179.516 154.753 180 152.319 180ZM141.019 162C141.019 163.666 141.286 165.283 141.819 166.85C142.353 168.416 143.103 169.8 144.069 171C145.069 172.2 146.269 173.166 147.669 173.9C149.069 174.6 150.636 174.95 152.369 174.95C154.169 174.95 155.753 174.583 157.119 173.85C158.519 173.083 159.703 172.083 160.669 170.85C161.636 169.616 162.369 168.233 162.869 166.7C163.369 165.166 163.619 163.6 163.619 162C163.619 160.3 163.353 158.683 162.819 157.15C162.286 155.583 161.519 154.216 160.519 153.05C159.553 151.85 158.369 150.9 156.969 150.2C155.603 149.466 154.069 149.1 152.369 149.1C150.569 149.1 148.969 149.483 147.569 150.25C146.169 150.983 144.986 151.95 144.019 153.15C143.053 154.35 142.303 155.733 141.769 157.3C141.269 158.833 141.019 160.4 141.019 162ZM189.967 174.95C191.834 174.95 193.384 174.583 194.617 173.85C195.85 173.116 196.834 172.166 197.567 171C198.334 169.8 198.867 168.45 199.167 166.95C199.5 165.416 199.667 163.85 199.667 162.25V144.25H205.317V162.25C205.317 164.683 205.034 166.983 204.467 169.15C203.9 171.283 203 173.166 201.767 174.8C200.534 176.4 198.934 177.666 196.967 178.6C195.034 179.533 192.7 180 189.967 180C187.134 180 184.734 179.516 182.767 178.55C180.834 177.55 179.267 176.233 178.067 174.6C176.867 172.933 176 171.033 175.467 168.9C174.934 166.766 174.667 164.55 174.667 162.25V144.25H180.267V162.25C180.267 163.883 180.417 165.466 180.717 167C181.05 168.5 181.584 169.85 182.317 171.05C183.084 172.216 184.084 173.166 185.317 173.9C186.584 174.6 188.134 174.95 189.967 174.95Z" fill="black"/>
<defs>
<linearGradient id="paint0_linear" x1="-86674.8" y1="661775" x2="-86674.8" y2="290664" gradientUnits="userSpaceOnUse">
<stop stop-color="#808080" stop-opacity="0.25"/>
<stop offset="0.54" stop-color="#808080" stop-opacity="0.12"/>
<stop offset="1" stop-color="#808080" stop-opacity="0.1"/>
</linearGradient>
</defs>
</svg>
